<svg viewBox="66.512 260.405 193 189" width="193" height="189" xmlns="http://www.w3.org/2000/svg" xmlns:bx="https://boxy-svg.com">
  <defs>
    <filter id="inner-shadow-filter-0" color-interpolation-filters="sRGB" x="-50%" y="-50%" width="200%" height="200%" bx:preset="inner-shadow 1 0 0 14 0.5 #67d4d4b3">
      <feOffset dx="0" dy="0"/>
      <feGaussianBlur stdDeviation="14"/>
      <feComposite operator="out" in="SourceGraphic"/>
      <feComponentTransfer result="choke">
        <feFuncA type="linear" slope="1"/>
      </feComponentTransfer>
      <feFlood flood-color="#67d4d4b3" result="color"/>
      <feComposite operator="in" in="color" in2="choke" result="shadow"/>
      <feComposite operator="over" in="shadow" in2="SourceGraphic"/>
    </filter>
  </defs>
  <circle style="fill: rgb(216, 216, 216); stroke: rgb(0, 0, 0); filter: url('#inner-shadow-filter-0'); opacity: 0.72; stroke-miterlimit: 1; stroke-width: 0px;" transform="matrix(0.5624299645423889, 0, 0, 0.5606439709663391, -217.66029357910156, 20.749193191528324)" cx="677.5" cy="596" r="157.5"/>
  <rect x="66.512" y="260.405" width="193" height="189" style="fill: rgb(216, 216, 216); stroke: rgb(0, 0, 0); stroke-opacity: 0; opacity: 0;"/>
  <path fill="#659AD3" d="M 215.117 318.781 L 166.817 290.981 C 166.017 290.481 164.917 290.281 163.717 290.281 C 162.517 290.281 161.417 290.581 160.617 290.981 L 112.617 318.881 C 110.917 319.881 109.717 322.381 109.717 324.281 L 109.717 379.981 C 109.717 381.081 109.917 382.381 110.717 383.481 L 217.517 321.481 C 216.917 320.281 216.017 319.381 215.117 318.781 Z"/>
  <path fill="#03599C" d="M 110.417 383.381 C 110.917 384.181 111.617 384.881 112.317 385.281 L 160.517 413.181 C 161.317 413.681 162.417 413.881 163.617 413.881 C 164.817 413.881 165.917 413.581 166.717 413.181 L 214.717 385.281 C 216.417 384.281 217.617 381.781 217.617 379.881 L 217.617 324.181 C 217.617 323.281 217.517 322.281 217.017 321.381 L 110.417 383.381 Z"/>
  <path fill="#fff" d="M 185.017 364.181 C 180.817 371.581 172.817 376.581 163.717 376.581 C 150.217 376.581 139.217 365.581 139.217 352.081 C 139.217 338.581 150.217 327.581 163.717 327.581 C 172.817 327.581 180.817 332.581 185.017 340.081 L 198.017 332.581 C 191.217 320.681 178.417 312.581 163.717 312.581 C 141.917 312.581 124.217 330.281 124.217 352.081 C 124.217 373.881 141.917 391.581 163.717 391.581 C 178.317 391.581 191.117 383.581 197.917 371.781 L 185.017 364.181 Z"/>
</svg>