<svg viewBox="62.668 257.113 200.874 194.062" width="200.874" height="194.062" xmlns="http://www.w3.org/2000/svg" xmlns:bx="https://boxy-svg.com">
  <defs>
    <filter id="inner-shadow-filter-0" color-interpolation-filters="sRGB" x="-50%" y="-50%" width="200%" height="200%" bx:preset="inner-shadow 1 0 0 19 0.62 #67d4d4b3">
      <feOffset dx="0" dy="0"/>
      <feGaussianBlur stdDeviation="19"/>
      <feComposite operator="out" in="SourceGraphic"/>
      <feComponentTransfer result="choke">
        <feFuncA type="linear" slope="1.24"/>
      </feComponentTransfer>
      <feFlood flood-color="#67d4d4b3" result="color"/>
      <feComposite operator="in" in="color" in2="choke" result="shadow"/>
      <feComposite operator="over" in="shadow" in2="SourceGraphic"/>
    </filter>
  </defs>
  <circle style="fill: rgb(216, 216, 216); stroke: rgb(0, 0, 0); filter: url('#inner-shadow-filter-0'); opacity: 0.72; stroke-width: 12.4658px; stroke-miterlimit: 1; paint-order: fill; stroke-opacity: 0.11;" transform="matrix(0.5624299645423889, 0, 0, 0.5606439709663391, -217.66029357910156, 20.74919319152832)" cx="677.5" cy="596" r="157.5"/>
  <rect x="62.668" y="257.113" width="200.874" height="194.062" style="fill: rgb(216, 216, 216); stroke: rgb(0, 0, 0); stroke-opacity: 0; opacity: 0;"/>
  <path fill="#659AD3" d="M 217.367 321.405 L 169.067 293.605 C 168.267 293.105 167.167 292.905 165.967 292.905 C 164.767 292.905 163.667 293.205 162.867 293.605 L 114.867 321.505 C 113.167 322.505 111.967 325.005 111.967 326.905 L 111.967 382.605 C 111.967 383.705 112.167 385.005 112.967 386.105 L 219.767 324.105 C 219.167 322.905 218.267 322.005 217.367 321.405 Z"/>
  <path fill="#03599C" d="M 112.667 386.005 C 113.167 386.805 113.867 387.505 114.567 387.905 L 162.767 415.805 C 163.567 416.305 164.667 416.505 165.867 416.505 C 167.067 416.505 168.167 416.205 168.967 415.805 L 216.967 387.905 C 218.667 386.905 219.867 384.405 219.867 382.505 L 219.867 326.805 C 219.867 325.905 219.767 324.905 219.267 324.005 L 112.667 386.005 Z"/>
  <path fill="#fff" d="M 187.267 366.805 C 183.067 374.205 175.067 379.205 165.967 379.205 C 152.467 379.205 141.467 368.205 141.467 354.705 C 141.467 341.205 152.467 330.205 165.967 330.205 C 175.067 330.205 183.067 335.205 187.267 342.705 L 200.267 335.205 C 193.467 323.305 180.667 315.205 165.967 315.205 C 144.167 315.205 126.467 332.905 126.467 354.705 C 126.467 376.505 144.167 394.205 165.967 394.205 C 180.567 394.205 193.367 386.205 200.167 374.405 L 187.267 366.805 Z"/>
</svg>