<svg viewBox="62.668 257.113 200.874 194.062" width="200.874" height="194.062" xmlns="http://www.w3.org/2000/svg" xmlns:bx="https://boxy-svg.com">
  <defs>
    <filter id="inner-shadow-filter-0" color-interpolation-filters="sRGB" x="-50%" y="-50%" width="200%" height="200%" bx:preset="inner-shadow 1 0 0 19 0.62 #67d4d4b3">
      <feOffset dx="0" dy="0"/>
      <feGaussianBlur stdDeviation="19"/>
      <feComposite operator="out" in="SourceGraphic"/>
      <feComponentTransfer result="choke">
        <feFuncA type="linear" slope="1.24"/>
      </feComponentTransfer>
      <feFlood flood-color="#67d4d4b3" result="color"/>
      <feComposite operator="in" in="color" in2="choke" result="shadow"/>
      <feComposite operator="over" in="shadow" in2="SourceGraphic"/>
    </filter>
  </defs>
  <circle style="fill: rgb(216, 216, 216); stroke: rgb(0, 0, 0); filter: url('#inner-shadow-filter-0'); opacity: 0.72; stroke-width: 12.4658px; stroke-miterlimit: 1; paint-order: fill; stroke-opacity: 0.11;" transform="matrix(0.5624299645423889, 0, 0, 0.5606439709663391, -217.66029357910156, 20.74919319152832)" cx="677.5" cy="596" r="157.5"/>
  <rect x="62.668" y="257.113" width="200.874" height="194.062" style="fill: rgb(216, 216, 216); stroke: rgb(0, 0, 0); stroke-opacity: 0; opacity: 0;"/>
  <path fill="#9B4F96" d="M 214.554 319.718 L 166.254 291.918 C 165.454 291.418 164.354 291.218 163.154 291.218 C 161.954 291.218 160.854 291.518 160.054 291.918 L 112.054 319.818 C 110.354 320.818 109.154 323.318 109.154 325.218 L 109.154 380.918 C 109.154 382.018 109.354 383.318 110.154 384.418 L 216.954 322.418 C 216.354 321.218 215.454 320.318 214.554 319.718 Z"/>
  <path fill="#68217A" d="M 109.854 384.318 C 110.354 385.118 111.054 385.818 111.754 386.218 L 159.954 414.118 C 160.754 414.618 161.854 414.818 163.054 414.818 C 164.254 414.818 165.354 414.518 166.154 414.118 L 214.154 386.218 C 215.854 385.218 217.054 382.718 217.054 380.818 L 217.054 325.118 C 217.054 324.218 216.954 323.218 216.454 322.318 L 109.854 384.318 Z"/>
  <path fill="#fff" d="M 184.454 365.118 C 180.254 372.518 172.254 377.518 163.154 377.518 C 149.654 377.518 138.654 366.518 138.654 353.018 C 138.654 339.518 149.654 328.518 163.154 328.518 C 172.254 328.518 180.254 333.518 184.454 341.018 L 197.454 333.518 C 190.654 321.618 177.854 313.518 163.154 313.518 C 141.354 313.518 123.654 331.218 123.654 353.018 C 123.654 374.818 141.354 392.518 163.154 392.518 C 177.754 392.518 190.554 384.518 197.354 372.718 L 184.454 365.118 Z M 196.154 355.218 L 197.054 350.918 L 192.854 350.918 L 192.854 346.218 L 197.954 346.218 L 199.154 340.018 L 204.054 340.018 L 202.854 346.118 L 206.654 346.118 L 207.854 340.018 L 212.654 340.018 L 211.454 346.118 L 213.854 346.118 L 213.854 350.818 L 210.554 350.818 L 209.654 355.118 L 213.854 355.118 L 213.854 359.818 L 208.754 359.818 L 207.554 365.818 L 202.654 365.818 L 203.854 359.818 L 200.054 359.818 L 198.854 365.818 L 194.054 365.818 L 195.254 359.818 L 192.854 359.818 L 192.854 355.118 L 196.154 355.118 L 196.154 355.218 Z M 200.954 355.218 L 204.754 355.218 L 205.654 350.918 L 201.854 350.918 L 200.954 355.218 Z"/>
</svg>