<svg viewBox="62.668 257.113 200.874 194.062" width="200.874" height="194.062" xmlns="http://www.w3.org/2000/svg" xmlns:bx="https://boxy-svg.com">
  <defs>
    <filter id="inner-shadow-filter-0" color-interpolation-filters="sRGB" x="-50%" y="-50%" width="200%" height="200%" bx:preset="inner-shadow 1 0 0 19 0.62 #67d4d4b3">
      <feOffset dx="0" dy="0"/>
      <feGaussianBlur stdDeviation="19"/>
      <feComposite operator="out" in="SourceGraphic"/>
      <feComponentTransfer result="choke">
        <feFuncA type="linear" slope="1.24"/>
      </feComponentTransfer>
      <feFlood flood-color="#67d4d4b3" result="color"/>
      <feComposite operator="in" in="color" in2="choke" result="shadow"/>
      <feComposite operator="over" in="shadow" in2="SourceGraphic"/>
    </filter>
  </defs>
  <circle style="fill: rgb(216, 216, 216); stroke: rgb(0, 0, 0); filter: url('#inner-shadow-filter-0'); opacity: 0.72; stroke-width: 12.4658px; stroke-miterlimit: 1; paint-order: fill; stroke-opacity: 0.11;" transform="matrix(0.5624299645423889, 0, 0, 0.5606439709663391, -217.66029357910156, 20.74919319152832)" cx="677.5" cy="596" r="157.5"/>
  <rect x="62.668" y="257.113" width="200.874" height="194.062" style="fill: rgb(216, 216, 216); stroke: rgb(0, 0, 0); stroke-opacity: 0; opacity: 0;"/>
  <path d="M 151.804 290.143 L 172.734 290.143 L 172.734 387.023 C 161.997 389.063 154.114 389.878 145.553 389.878 C 120.002 389.877 106.683 378.327 106.683 356.173 C 106.683 334.835 120.818 320.973 142.698 320.973 C 146.096 320.973 148.678 321.245 151.804 322.06 L 151.804 290.143 Z M 151.804 338.908 C 149.358 338.093 147.319 337.822 144.737 337.822 C 134.137 337.822 128.02 344.345 128.02 355.761 C 128.02 366.906 133.865 373.021 144.602 373.021 C 146.911 373.021 148.814 372.885 151.804 372.479 L 151.804 338.908 Z" style="fill: rgb(37, 90, 49);"/>
  <path d="M 206.028 322.464 L 206.028 370.983 C 206.028 387.7 204.804 395.718 201.135 402.649 C 197.737 409.31 193.252 413.522 184.011 418.143 L 164.576 408.902 C 173.818 404.552 178.302 400.749 181.156 394.902 C 184.146 388.923 185.099 381.992 185.099 363.78 L 185.099 322.464 L 206.028 322.464 Z M 185.098 290.254 L 206.028 290.254 L 206.028 311.728 L 185.098 311.728 L 185.098 290.254 Z" style="fill: rgb(37, 90, 49);"/>
</svg>