<svg viewBox="62.668 257.113 200.874 194.062" width="200.874" height="194.062" xmlns="http://www.w3.org/2000/svg" xmlns:bx="https://boxy-svg.com">
  <defs>
    <filter id="inner-shadow-filter-0" color-interpolation-filters="sRGB" x="-50%" y="-50%" width="200%" height="200%" bx:preset="inner-shadow 1 0 0 19 0.62 #67d4d4b3">
      <feOffset dx="0" dy="0"/>
      <feGaussianBlur stdDeviation="19"/>
      <feComposite operator="out" in="SourceGraphic"/>
      <feComponentTransfer result="choke">
        <feFuncA type="linear" slope="1.24"/>
      </feComponentTransfer>
      <feFlood flood-color="#67d4d4b3" result="color"/>
      <feComposite operator="in" in="color" in2="choke" result="shadow"/>
      <feComposite operator="over" in="shadow" in2="SourceGraphic"/>
    </filter>
  </defs>
  <circle style="fill: rgb(216, 216, 216); stroke: rgb(0, 0, 0); filter: url('#inner-shadow-filter-0'); opacity: 0.72; stroke-width: 12.4658px; stroke-miterlimit: 1; paint-order: fill; stroke-opacity: 0.11;" transform="matrix(0.5624299645423889, 0, 0, 0.5606439709663391, -217.66029357910156, 20.74919319152832)" cx="677.5" cy="596" r="157.5"/>
  <rect x="62.668" y="257.113" width="200.874" height="194.062" style="fill: rgb(216, 216, 216); stroke: rgb(0, 0, 0); stroke-opacity: 0; opacity: 0;"/>
  <path fill-rule="evenodd" clip-rule="evenodd" fill="#3A4D54" d="M 122.479 385.868 L 122.479 377.768 C 122.479 376.668 123.179 375.868 124.279 375.868 L 124.579 375.868 C 125.679 375.868 126.379 376.768 126.379 377.768 L 126.379 394.768 C 126.379 398.868 124.379 402.168 120.779 404.268 C 119.079 405.268 117.279 405.768 115.379 405.768 L 114.579 405.768 C 110.479 405.768 107.179 403.768 105.079 400.168 C 104.079 398.468 103.579 396.668 103.579 394.768 L 103.579 393.968 C 103.579 389.868 105.579 386.568 109.179 384.468 C 110.879 383.468 112.679 382.968 114.579 382.968 L 115.379 382.968 C 118.079 383.068 120.479 384.068 122.479 385.868 Z M 107.379 394.368 C 107.379 397.368 108.879 399.568 111.479 401.068 C 112.579 401.668 113.679 401.968 114.879 401.968 C 117.779 401.968 119.979 400.568 121.479 398.068 C 122.179 396.868 122.479 395.668 122.479 394.268 C 122.479 391.668 121.279 389.668 119.179 388.168 C 117.879 387.268 116.479 386.768 114.979 386.768 C 111.779 386.768 109.479 388.368 108.079 391.268 C 107.579 392.268 107.379 393.368 107.379 394.368 Z M 139.579 383.068 L 140.079 383.068 C 144.479 383.068 147.879 385.168 149.979 389.068 C 150.879 390.568 151.279 392.268 151.279 394.068 L 151.279 394.868 C 151.279 398.968 149.279 402.268 145.679 404.368 C 143.979 405.368 142.179 405.868 140.279 405.868 L 139.479 405.868 C 135.379 405.868 132.079 403.868 129.979 400.268 C 128.979 398.568 128.479 396.768 128.479 394.868 L 128.479 394.068 C 128.479 389.968 130.579 386.668 134.079 384.568 C 135.779 383.468 137.679 383.068 139.579 383.068 Z M 132.379 394.368 C 132.379 397.268 133.779 399.368 136.279 400.868 C 137.479 401.568 138.679 401.868 140.079 401.868 C 142.979 401.868 145.079 400.368 146.579 397.968 C 147.279 396.768 147.579 395.568 147.579 394.168 C 147.579 391.468 146.279 389.368 144.079 387.868 C 142.879 387.068 141.479 386.668 140.079 386.668 C 136.879 386.668 134.579 388.268 133.179 391.168 C 132.579 392.268 132.379 393.368 132.379 394.368 Z M 167.179 387.168 C 166.579 386.868 165.479 386.768 164.879 386.768 C 161.679 386.668 159.379 388.468 157.979 391.268 C 157.479 392.268 157.279 393.268 157.279 394.368 C 157.279 397.668 158.979 399.968 161.879 401.368 C 162.979 401.868 164.279 401.968 165.479 401.968 C 166.479 401.968 167.979 401.368 168.879 400.868 L 169.079 400.768 L 169.879 400.768 C 170.779 400.968 171.379 401.468 171.379 402.468 L 171.379 402.868 C 171.379 405.168 167.079 405.768 165.479 405.868 C 159.779 406.268 155.479 403.168 153.879 397.668 C 153.579 396.768 153.479 395.768 153.479 394.768 L 153.479 393.968 C 153.479 389.868 155.579 386.568 159.079 384.468 C 160.779 383.468 162.579 382.968 164.479 382.968 L 165.279 382.968 C 167.279 382.968 169.179 383.568 170.879 384.668 L 170.979 384.768 L 171.079 384.868 C 171.279 385.168 171.379 385.468 171.379 385.868 L 171.379 386.268 C 171.379 387.268 170.679 387.768 169.779 387.968 L 169.479 387.968 C 168.979 387.968 167.679 387.368 167.179 387.168 Z M 179.579 389.768 C 181.079 388.268 182.579 386.768 184.079 385.368 C 184.479 384.968 186.079 383.268 186.679 383.268 L 187.479 383.268 C 188.379 383.468 188.979 383.968 188.979 384.968 L 188.979 385.368 C 188.979 385.968 188.279 386.768 187.779 387.168 L 185.079 389.868 L 180.479 394.568 C 182.479 396.568 184.479 398.568 186.379 400.568 L 187.979 402.268 C 188.179 402.468 188.479 402.668 188.579 402.968 C 188.779 403.268 188.879 403.568 188.879 403.868 L 188.879 404.368 C 188.679 405.268 188.079 405.968 187.179 405.968 L 186.879 405.968 C 186.279 405.968 185.579 405.268 185.079 404.868 C 184.179 404.068 183.279 403.168 182.479 402.268 L 179.579 399.368 L 179.579 403.968 C 179.579 405.068 178.879 405.868 177.779 405.868 L 177.479 405.868 C 176.379 405.868 175.679 404.968 175.679 403.968 L 175.679 377.868 C 175.679 376.768 176.379 375.968 177.479 375.968 L 177.779 375.968 C 178.879 375.968 179.579 376.768 179.579 377.868 L 179.579 389.768 Z M 227.179 383.168 L 227.579 383.168 C 228.679 383.168 229.479 383.968 229.479 385.068 C 229.479 386.668 227.979 387.068 226.679 387.068 C 224.979 387.068 223.279 388.068 222.179 389.268 C 220.679 390.768 220.079 392.568 220.079 394.668 L 220.079 403.868 C 220.079 404.968 219.379 405.768 218.279 405.768 L 217.979 405.768 C 216.879 405.768 216.179 404.868 216.179 403.868 L 216.179 394.068 C 216.179 390.268 217.979 387.268 221.079 385.068 C 222.879 383.868 224.979 383.168 227.179 383.168 Z M 200.079 401.468 C 201.479 401.968 203.079 401.868 204.479 401.668 C 205.179 401.368 207.079 400.568 207.779 400.668 L 207.979 400.668 C 208.379 400.868 208.779 401.168 208.979 401.568 C 209.479 402.568 209.279 403.568 208.279 404.168 L 207.979 404.368 C 204.379 406.468 200.479 406.168 196.879 404.168 C 195.179 403.268 193.879 401.868 192.879 400.168 L 192.679 399.768 C 190.379 395.768 190.679 391.468 193.279 387.668 C 194.179 386.368 195.379 385.368 196.779 384.568 L 197.279 384.268 C 200.679 382.268 204.379 382.468 207.879 384.168 C 209.779 385.068 211.279 386.468 212.379 388.268 L 212.579 388.568 C 213.379 389.868 212.379 391.068 211.379 391.868 C 210.179 392.768 208.979 393.868 207.879 394.868 C 205.179 397.068 202.579 399.268 200.079 401.468 Z M 196.779 399.168 L 205.279 391.868 C 206.279 391.068 207.279 390.168 208.279 389.268 C 207.479 388.268 206.179 387.568 205.179 387.168 C 202.979 386.368 200.779 386.568 198.779 387.768 C 196.179 389.268 194.979 391.768 195.079 394.768 C 195.079 395.968 195.479 397.068 196.079 398.168 C 196.279 398.568 196.479 398.868 196.779 399.168 M 176.179 322.668 L 187.479 322.668 L 187.479 334.168 L 193.179 334.168 C 195.779 334.168 198.479 333.668 200.979 332.868 C 202.179 332.468 203.579 331.868 204.779 331.168 C 203.179 329.068 202.379 326.468 202.179 323.868 C 201.879 320.368 202.579 315.768 204.979 313.068 L 206.179 311.668 L 207.579 312.768 C 211.179 315.668 214.079 319.568 214.679 324.168 C 218.979 322.868 223.979 323.168 227.779 325.368 L 229.279 326.268 L 228.479 327.868 C 225.279 334.068 218.579 336.068 212.079 335.668 C 202.279 359.968 181.079 371.468 155.279 371.468 C 141.979 371.468 129.779 366.468 122.779 354.668 L 122.679 354.468 L 121.679 352.368 C 119.279 347.168 118.579 341.468 119.079 335.768 L 119.279 334.068 L 128.879 334.068 L 128.879 322.668 L 140.179 322.668 L 140.179 311.368 L 162.679 311.368 L 162.679 300.068 L 176.179 300.068 L 176.179 322.668 Z"/>
  <path fill="#00AADA" d="M 212.679 326.868 C 213.479 320.968 209.079 316.368 206.279 314.168 C 203.179 317.768 202.679 327.368 207.579 331.368 C 204.779 333.768 199.079 336.068 193.079 336.068 L 120.879 336.068 C 120.279 342.268 121.379 347.968 123.879 352.868 L 124.679 354.368 C 125.179 355.268 125.779 356.068 126.379 356.968 C 129.379 357.168 132.079 357.268 134.579 357.168 C 139.479 357.068 143.479 356.468 146.579 355.468 C 147.079 355.268 147.479 355.568 147.679 355.968 C 147.879 356.468 147.579 356.868 147.179 357.068 C 146.779 357.168 146.379 357.368 145.879 357.468 C 143.479 358.168 140.879 358.568 137.579 358.768 L 136.979 358.768 C 135.679 358.868 134.279 358.868 132.779 358.868 C 131.179 358.868 129.679 358.868 127.879 358.768 C 133.879 365.568 143.279 369.568 155.079 369.568 C 180.079 369.568 201.279 358.468 210.579 333.668 C 217.279 334.368 223.679 332.668 226.579 326.968 C 222.079 324.368 216.079 325.168 212.679 326.868 Z"/>
  <path fill="#28B8EB" d="M 212.679 326.868 C 213.479 320.968 209.079 316.368 206.279 314.168 C 203.179 317.768 202.679 327.368 207.579 331.368 C 204.779 333.768 199.079 336.068 193.079 336.068 L 125.079 336.068 C 124.779 345.568 128.279 352.768 134.579 357.068 C 139.479 356.968 143.479 356.368 146.579 355.368 C 147.079 355.168 147.479 355.468 147.679 355.868 C 147.879 356.368 147.579 356.768 147.179 356.968 C 146.779 357.068 146.379 357.268 145.879 357.368 C 143.479 358.068 140.679 358.568 137.379 358.768 L 137.279 358.668 C 145.779 363.068 158.079 362.968 172.279 357.568 C 188.079 351.468 202.879 339.868 213.179 326.668 C 212.979 326.768 212.879 326.868 212.679 326.868 Z"/>
  <path fill="#028BB8" d="M 120.979 343.568 C 121.379 346.868 122.379 349.968 123.879 352.868 L 124.679 354.368 C 125.179 355.268 125.779 356.068 126.379 356.968 C 129.379 357.168 132.079 357.268 134.579 357.168 C 139.479 357.068 143.479 356.468 146.579 355.468 C 147.079 355.268 147.479 355.568 147.679 355.968 C 147.879 356.468 147.579 356.868 147.179 357.068 C 146.779 357.168 146.379 357.368 145.879 357.468 C 143.479 358.168 140.679 358.668 137.379 358.868 L 136.979 358.868 C 135.679 358.968 134.279 358.968 132.879 358.968 C 131.279 358.968 129.679 358.968 127.979 358.868 C 133.979 365.668 143.479 369.668 155.279 369.668 C 176.679 369.668 195.279 361.568 206.079 343.668 L 120.979 343.668 L 120.979 343.568 Z"/>
  <path fill="#019BC6" d="M 125.779 343.568 C 127.079 349.368 130.079 353.968 134.579 357.068 C 139.479 356.968 143.479 356.368 146.579 355.368 C 147.079 355.168 147.479 355.468 147.679 355.868 C 147.879 356.368 147.579 356.768 147.179 356.968 C 146.779 357.068 146.379 357.268 145.879 357.368 C 143.479 358.068 140.679 358.568 137.279 358.768 C 145.779 363.168 158.079 363.068 172.179 357.668 C 180.679 354.368 188.979 349.468 196.379 343.568 L 125.779 343.568 Z"/>
  <path fill-rule="evenodd" clip-rule="evenodd" fill="#00ACD3" d="M 130.679 324.468 L 140.479 324.468 L 140.479 334.268 L 130.679 334.268 L 130.679 324.468 Z M 131.479 325.368 L 132.279 325.368 L 132.279 333.468 L 131.479 333.468 L 131.479 325.368 Z M 132.979 325.368 L 133.779 325.368 L 133.779 333.468 L 132.979 333.468 L 132.979 325.368 Z M 134.479 325.368 L 135.279 325.368 L 135.279 333.468 L 134.479 333.468 L 134.479 325.368 Z M 135.879 325.368 L 136.679 325.368 L 136.679 333.468 L 135.879 333.468 L 135.879 325.368 Z M 137.379 325.368 L 138.179 325.368 L 138.179 333.468 L 137.379 333.468 L 137.379 325.368 Z M 138.879 325.368 L 139.679 325.368 L 139.679 333.468 L 138.879 333.468 L 138.879 325.368 Z M 141.979 313.268 L 151.779 313.268 L 151.779 322.968 L 141.979 322.968 L 141.979 313.268 Z M 142.779 314.068 L 143.579 314.068 L 143.579 322.168 L 142.779 322.168 L 142.779 314.068 Z M 144.279 314.068 L 145.079 314.068 L 145.079 322.168 L 144.279 322.168 L 144.279 314.068 Z M 145.679 314.068 L 146.479 314.068 L 146.479 322.168 L 145.679 322.168 L 145.679 314.068 Z M 147.179 314.068 L 147.979 314.068 L 147.979 322.168 L 147.179 322.168 L 147.179 314.068 Z M 148.679 314.068 L 149.479 314.068 L 149.479 322.168 L 148.679 322.168 L 148.679 314.068 Z M 150.179 314.068 L 150.979 314.068 L 150.979 322.168 L 150.179 322.168 L 150.179 314.068 Z"/>
  <path fill-rule="evenodd" clip-rule="evenodd" fill="#23C2EE" d="M 141.979 324.468 L 151.779 324.468 L 151.779 334.268 L 141.979 334.268 L 141.979 324.468 Z M 142.779 325.368 L 143.579 325.368 L 143.579 333.468 L 142.779 333.468 L 142.779 325.368 Z M 144.279 325.368 L 145.079 325.368 L 145.079 333.468 L 144.279 333.468 L 144.279 325.368 Z M 145.679 325.368 L 146.479 325.368 L 146.479 333.468 L 145.679 333.468 L 145.679 325.368 Z M 147.179 325.368 L 147.979 325.368 L 147.979 333.468 L 147.179 333.468 L 147.179 325.368 Z M 148.679 325.368 L 149.479 325.368 L 149.479 333.468 L 148.679 333.468 L 148.679 325.368 Z M 150.179 325.368 L 150.979 325.368 L 150.979 333.468 L 150.179 333.468 L 150.179 325.368 Z"/>
  <path fill-rule="evenodd" clip-rule="evenodd" fill="#00ACD3" d="M 153.279 324.468 L 163.079 324.468 L 163.079 334.268 L 153.279 334.268 L 153.279 324.468 Z M 154.079 325.368 L 154.879 325.368 L 154.879 333.468 L 154.079 333.468 L 154.079 325.368 Z M 155.479 325.368 L 156.279 325.368 L 156.279 333.468 L 155.479 333.468 L 155.479 325.368 Z M 156.979 325.368 L 157.779 325.368 L 157.779 333.468 L 156.979 333.468 L 156.979 325.368 Z M 158.479 325.368 L 159.279 325.368 L 159.279 333.468 L 158.479 333.468 L 158.479 325.368 Z M 159.979 325.368 L 160.779 325.368 L 160.779 333.468 L 159.979 333.468 L 159.979 325.368 Z M 161.379 325.368 L 162.179 325.368 L 162.179 333.468 L 161.379 333.468 L 161.379 325.368 Z"/>
  <path fill-rule="evenodd" clip-rule="evenodd" fill="#23C2EE" d="M 153.279 313.268 L 163.079 313.268 L 163.079 322.968 L 153.279 322.968 L 153.279 313.268 Z M 154.079 314.068 L 154.879 314.068 L 154.879 322.168 L 154.079 322.168 L 154.079 314.068 Z M 155.479 314.068 L 156.279 314.068 L 156.279 322.168 L 155.479 322.168 L 155.479 314.068 Z M 156.979 314.068 L 157.779 314.068 L 157.779 322.168 L 156.979 322.168 L 156.979 314.068 Z M 158.479 314.068 L 159.279 314.068 L 159.279 322.168 L 158.479 322.168 L 158.479 314.068 Z M 159.979 314.068 L 160.779 314.068 L 160.779 322.168 L 159.979 322.168 L 159.979 314.068 Z M 161.379 314.068 L 162.179 314.068 L 162.179 322.168 L 161.379 322.168 L 161.379 314.068 Z M 164.479 324.468 L 174.279 324.468 L 174.279 334.268 L 164.479 334.268 L 164.479 324.468 Z M 165.379 325.368 L 166.179 325.368 L 166.179 333.468 L 165.379 333.468 L 165.379 325.368 Z M 166.779 325.368 L 167.579 325.368 L 167.579 333.468 L 166.779 333.468 L 166.779 325.368 Z M 168.279 325.368 L 169.079 325.368 L 169.079 333.468 L 168.279 333.468 L 168.279 325.368 Z M 169.779 325.368 L 170.579 325.368 L 170.579 333.468 L 169.779 333.468 L 169.779 325.368 Z M 171.179 325.368 L 171.979 325.368 L 171.979 333.468 L 171.179 333.468 L 171.179 325.368 Z M 172.679 325.368 L 173.479 325.368 L 173.479 333.468 L 172.679 333.468 L 172.679 325.368 Z"/>
  <path fill-rule="evenodd" clip-rule="evenodd" fill="#00ACD3" d="M 164.479 313.268 L 174.279 313.268 L 174.279 322.968 L 164.479 322.968 L 164.479 313.268 Z M 165.379 314.068 L 166.179 314.068 L 166.179 322.168 L 165.379 322.168 L 165.379 314.068 Z M 166.779 314.068 L 167.579 314.068 L 167.579 322.168 L 166.779 322.168 L 166.779 314.068 Z M 168.279 314.068 L 169.079 314.068 L 169.079 322.168 L 168.279 322.168 L 168.279 314.068 Z M 169.779 314.068 L 170.579 314.068 L 170.579 322.168 L 169.779 322.168 L 169.779 314.068 Z M 171.179 314.068 L 171.979 314.068 L 171.979 322.168 L 171.179 322.168 L 171.179 314.068 Z M 172.679 314.068 L 173.479 314.068 L 173.479 322.168 L 172.679 322.168 L 172.679 314.068 Z"/>
  <path fill-rule="evenodd" clip-rule="evenodd" fill="#23C2EE" d="M 164.479 301.968 L 174.279 301.968 L 174.279 311.768 L 164.479 311.768 L 164.479 301.968 Z M 165.379 302.768 L 166.179 302.768 L 166.179 310.968 L 165.379 310.968 L 165.379 302.768 Z M 166.779 302.768 L 167.579 302.768 L 167.579 310.968 L 166.779 310.968 L 166.779 302.768 Z M 168.279 302.768 L 169.079 302.768 L 169.079 310.968 L 168.279 310.968 L 168.279 302.768 Z M 169.779 302.768 L 170.579 302.768 L 170.579 310.968 L 169.779 310.968 L 169.779 302.768 Z M 171.179 302.768 L 171.979 302.768 L 171.979 310.968 L 171.179 310.968 L 171.179 302.768 Z M 172.679 302.768 L 173.479 302.768 L 173.479 310.968 L 172.679 310.968 L 172.679 302.768 Z"/>
  <path fill-rule="evenodd" clip-rule="evenodd" fill="#00ACD3" d="M 175.779 324.468 L 185.579 324.468 L 185.579 334.268 L 175.779 334.268 L 175.779 324.468 Z M 176.579 325.368 L 177.379 325.368 L 177.379 333.468 L 176.579 333.468 L 176.579 325.368 Z M 178.079 325.368 L 178.879 325.368 L 178.879 333.468 L 178.079 333.468 L 178.079 325.368 Z M 179.579 325.368 L 180.379 325.368 L 180.379 333.468 L 179.579 333.468 L 179.579 325.368 Z M 180.979 325.368 L 181.779 325.368 L 181.779 333.468 L 180.979 333.468 L 180.979 325.368 Z M 182.479 325.368 L 183.279 325.368 L 183.279 333.468 L 182.479 333.468 L 182.479 325.368 Z M 183.979 325.368 L 184.779 325.368 L 184.779 333.468 L 183.979 333.468 L 183.979 325.368 Z"/>
  <path fill-rule="evenodd" clip-rule="evenodd" fill="#D4EEF1" d="M 151.079 350.168 C 152.579 350.168 153.779 351.368 153.779 352.868 C 153.779 354.368 152.579 355.568 151.079 355.568 C 149.579 355.568 148.379 354.368 148.379 352.868 C 148.479 351.368 149.679 350.168 151.079 350.168"/>
  <path fill-rule="evenodd" clip-rule="evenodd" fill="#3A4D54" d="M 151.079 350.868 C 151.279 350.868 151.579 350.868 151.779 350.968 C 151.579 351.068 151.379 351.368 151.379 351.668 C 151.379 352.068 151.779 352.468 152.179 352.468 C 152.479 352.468 152.779 352.268 152.879 352.068 C 152.979 352.268 152.979 352.568 152.979 352.768 C 152.979 353.868 152.079 354.668 151.079 354.668 C 149.979 354.668 149.179 353.768 149.179 352.768 C 149.179 351.768 150.079 350.868 151.079 350.868 M 103.479 344.568 L 228.779 344.568 C 226.079 343.868 220.179 342.968 221.079 339.368 C 216.079 345.068 204.179 343.368 201.079 340.568 C 197.679 345.468 178.079 343.568 176.779 339.768 C 172.579 344.768 159.479 344.768 155.279 339.768 C 153.879 343.568 134.279 345.468 130.979 340.568 C 127.979 343.368 115.979 345.068 110.979 339.368 C 112.079 342.868 106.179 343.868 103.479 344.568"/>
  <path fill="#BFDBE0" d="M 158.279 369.568 C 151.579 366.368 147.979 362.068 145.879 357.368 C 143.379 358.068 140.379 358.568 136.979 358.768 C 135.679 358.868 134.279 358.868 132.879 358.868 C 131.179 358.868 129.479 358.868 127.679 358.768 C 133.779 364.868 141.379 369.568 155.279 369.668 C 156.279 369.568 157.279 369.568 158.279 369.568 Z"/>
  <path fill="#D4EEF1" d="M 148.379 361.668 C 147.479 360.368 146.579 358.868 145.879 357.368 C 143.379 358.068 140.379 358.568 136.979 358.768 C 139.379 360.068 142.779 361.268 148.379 361.668 Z"/>
</svg>