<svg viewBox="62.668 257.113 200.874 194.062" width="200.874" height="194.062" xmlns="http://www.w3.org/2000/svg" xmlns:bx="https://boxy-svg.com">
  <defs>
    <filter id="inner-shadow-filter-0" color-interpolation-filters="sRGB" x="-50%" y="-50%" width="200%" height="200%" bx:preset="inner-shadow 1 0 0 19 0.62 #67d4d4b3">
      <feOffset dx="0" dy="0"/>
      <feGaussianBlur stdDeviation="19"/>
      <feComposite operator="out" in="SourceGraphic"/>
      <feComponentTransfer result="choke">
        <feFuncA type="linear" slope="1.24"/>
      </feComponentTransfer>
      <feFlood flood-color="#67d4d4b3" result="color"/>
      <feComposite operator="in" in="color" in2="choke" result="shadow"/>
      <feComposite operator="over" in="shadow" in2="SourceGraphic"/>
    </filter>
  </defs>
  <circle style="fill: rgb(216, 216, 216); stroke: rgb(0, 0, 0); filter: url('#inner-shadow-filter-0'); opacity: 0.72; stroke-width: 12.4658px; stroke-miterlimit: 1; paint-order: fill; stroke-opacity: 0.11;" transform="matrix(0.5624299645423889, 0, 0, 0.5606439709663391, -217.66029357910156, 20.74919319152832)" cx="677.5" cy="596" r="157.5"/>
  <rect x="62.668" y="257.113" width="200.874" height="194.062" style="fill: rgb(216, 216, 216); stroke: rgb(0, 0, 0); stroke-opacity: 0; opacity: 0;"/>
  <path fill="#F0DB4F" d="M 111.2 293.238 L 218.948 293.238 L 218.948 408.299 L 111.2 408.299 L 111.2 293.238 Z" style=""/>
  <path fill="#323330" d="M 210.13 380.857 C 209.341 375.608 206.135 371.198 196.641 367.087 C 193.343 365.468 189.665 364.309 188.569 361.64 C 188.181 360.087 188.129 359.212 188.376 358.271 C 189.082 355.22 192.493 354.269 195.197 355.144 C 196.938 355.767 198.586 357.2 199.58 359.486 C 204.23 356.271 204.22 356.292 207.467 354.082 C 206.278 352.115 205.644 351.206 204.866 350.364 C 202.069 347.029 198.259 345.311 192.164 345.442 L 188.991 345.881 C 185.949 346.702 183.05 348.407 181.35 350.693 C 176.249 356.873 177.704 367.689 183.911 372.14 C 190.026 377.041 199.008 378.156 200.155 382.739 C 201.271 388.349 196.294 390.166 191.346 389.52 C 187.7 388.711 185.672 386.732 183.48 383.133 C 179.446 385.627 179.446 385.627 175.296 388.174 C 176.28 390.472 177.314 391.511 178.963 393.501 C 186.769 401.955 206.299 401.539 209.803 388.744 C 209.945 388.304 210.888 385.374 210.13 380.857 Z M 169.775 346.12 L 159.697 346.12 L 159.655 373.944 C 159.655 379.861 159.942 385.286 159.041 386.948 C 157.566 390.219 153.746 389.813 152.005 389.18 C 150.232 388.249 149.331 386.927 148.287 385.057 C 148 384.52 147.785 384.105 147.713 384.073 L 139.519 389.431 C 140.881 392.418 142.888 395.01 145.46 396.693 C 149.3 399.154 154.462 399.909 159.861 398.586 C 163.374 397.493 166.405 395.229 167.993 391.783 C 170.287 387.266 169.794 381.797 169.774 375.75 C 169.825 365.883 169.775 356.018 169.775 346.12 Z" style=""/>
</svg>