<svg viewBox="62.668 257.113 200.874 194.062" width="200.874" height="194.062" xmlns="http://www.w3.org/2000/svg" xmlns:bx="https://boxy-svg.com">
  <defs>
    <filter id="inner-shadow-filter-0" color-interpolation-filters="sRGB" x="-50%" y="-50%" width="200%" height="200%" bx:preset="inner-shadow 1 0 0 19 0.62 #67d4d4b3">
      <feOffset dx="0" dy="0"/>
      <feGaussianBlur stdDeviation="19"/>
      <feComposite operator="out" in="SourceGraphic"/>
      <feComponentTransfer result="choke">
        <feFuncA type="linear" slope="1.24"/>
      </feComponentTransfer>
      <feFlood flood-color="#67d4d4b3" result="color"/>
      <feComposite operator="in" in="color" in2="choke" result="shadow"/>
      <feComposite operator="over" in="shadow" in2="SourceGraphic"/>
    </filter>
  </defs>
  <circle style="fill: rgb(216, 216, 216); stroke: rgb(0, 0, 0); filter: url('#inner-shadow-filter-0'); opacity: 0.72; stroke-width: 12.4658px; stroke-miterlimit: 1; paint-order: fill; stroke-opacity: 0.11;" transform="matrix(0.5624299645423889, 0, 0, 0.5606439709663391, -217.66029357910156, 20.74919319152832)" cx="677.5" cy="596" r="157.5"/>
  <rect x="62.668" y="257.113" width="200.874" height="194.062" style="fill: rgb(216, 216, 216); stroke: rgb(0, 0, 0); stroke-opacity: 0; opacity: 0;"/>
  <path style="-inkscape-stroke:none" d="M 120.429 402.163 C 118.191 402.163 115.916 401.238 114.488 399.424 L 114.488 409.22 L 110.012 409.22 L 110.012 385.04 L 114.061 385.04 L 114.22 387.691 C 115.609 385.647 118.077 384.567 120.43 384.57 C 124.941 384.57 128.268 388.349 128.268 393.365 C 128.268 398.38 124.939 402.166 120.428 402.164 L 120.429 402.163 Z M 119.042 387.893 C 116.429 387.893 114.296 389.937 114.296 393.37 C 114.296 396.803 116.416 398.847 119.04 398.847 C 121.663 398.847 123.779 396.803 123.779 393.37 C 123.779 389.937 121.663 387.893 119.042 387.893 Z M 145.137 401.704 L 144.982 399.044 C 143.594 401.087 141.125 402.167 138.774 402.167 C 134.261 402.167 130.937 398.386 130.937 393.372 C 130.937 388.359 134.254 384.577 138.774 384.58 C 141.124 384.58 143.594 385.668 144.982 387.703 L 145.137 385.043 L 149.187 385.043 L 149.187 401.706 L 145.137 401.704 Z M 140.163 387.894 C 137.55 387.894 135.419 389.938 135.419 393.371 C 135.419 396.804 137.539 398.848 140.163 398.848 C 142.786 398.848 144.906 396.804 144.906 393.373 C 144.906 389.943 142.786 387.907 140.163 387.894 Z M 164.841 401.708 L 164.841 392.48 C 164.841 389.24 163.721 388.16 161.678 388.16 C 159.558 388.16 157.243 390.087 157.241 392.401 L 157.241 401.697 L 152.769 401.697 L 152.769 385.043 L 156.869 385.043 L 157.06 388.13 C 158.18 386.008 160.687 384.582 163.232 384.582 C 167.666 384.582 169.327 387.669 169.327 391.796 L 169.327 401.708 L 164.841 401.708 Z M 185.718 401.71 L 185.563 399.048 C 184.176 401.092 181.708 402.171 179.354 402.171 C 174.842 402.171 171.517 398.391 171.517 393.377 C 171.517 388.363 174.835 384.584 179.354 384.584 C 181.59 384.584 183.867 385.511 185.294 387.324 L 185.294 378.569 L 189.767 378.569 L 189.767 401.71 L 185.718 401.71 Z M 180.746 387.908 C 178.122 387.908 176 389.952 176 393.385 C 176 396.818 178.12 398.86 180.743 398.863 C 183.367 398.863 185.487 396.818 185.487 393.385 C 185.487 389.952 183.367 387.908 180.746 387.908 Z M 206.579 401.712 L 206.425 399.052 C 205.036 401.096 202.567 402.176 200.216 402.174 C 195.703 402.174 192.379 398.394 192.379 393.381 C 192.379 388.367 195.697 384.586 200.216 384.588 C 202.567 384.588 205.036 385.677 206.425 387.712 L 206.58 385.052 L 210.64 385.052 L 210.64 401.712 L 206.579 401.712 Z M 201.605 387.908 C 198.982 387.908 196.862 389.952 196.862 393.385 C 196.862 396.818 198.982 398.863 201.605 398.863 C 204.228 398.863 206.349 396.818 206.349 393.385 C 206.349 389.952 204.229 387.908 201.605 387.908 Z M 220.543 402.254 C 218.189 402.235 215.884 401.582 213.87 400.364 L 214.602 397.269 C 215.952 398.079 217.996 399.122 220.464 399.122 C 222.238 399.122 223.473 398.582 223.473 397.192 C 223.473 395.998 222.201 395.573 219.924 395.033 C 215.838 394.145 214.371 391.986 214.373 389.633 C 214.373 387.02 216.417 384.543 220.93 384.543 C 223.669 384.543 226.059 385.74 226.59 386.047 L 225.865 388.997 C 224.408 388.119 222.746 387.639 221.045 387.607 C 219.232 387.607 218.344 388.224 218.344 389.227 C 218.344 390.344 219.502 390.847 221.276 391.271 C 225.671 392.197 227.446 394.241 227.446 396.479 C 227.446 400.058 224.822 402.254 220.543 402.254 Z M 158.121 305.611 L 166.068 305.611 L 166.068 322.114 L 158.121 322.114 L 158.121 305.611 Z M 158.121 339.509 L 166.068 339.509 L 166.068 356.011 L 158.121 356.011 L 158.121 339.509 Z" color="#000" fill="#130754"/>
  <path style="-inkscape-stroke:none" d="M 158.121 326.933 L 166.068 326.933 L 166.068 334.719 L 158.121 334.719 L 158.121 326.933 Z" color="#000" fill="#ffca00"/>
  <path style="-inkscape-stroke:none" d="M 145.354 319.18 L 153.301 319.18 L 153.301 374.034 L 145.354 374.034 L 145.354 319.18 Z M 170.624 353.124 L 178.572 353.124 L 178.572 369.626 L 170.624 369.626 L 170.624 353.124 Z M 170.624 319.2 L 178.572 319.2 L 178.572 335.702 L 170.624 335.702 L 170.624 319.2 Z" color="#000" fill="#130754"/>
  <path style="-inkscape-stroke:none" d="M 170.624 340.519 L 178.572 340.519 L 178.572 348.304 L 170.624 348.304 L 170.624 340.519 Z" color="#000" fill="#e70488"/>
  <path style="-inkscape-stroke:none" d="M 183.124 301.316 L 191.072 301.316 L 191.072 356.169 L 183.124 356.169 L 183.124 301.316 Z" color="#000" fill="#130754"/>
</svg>