<svg viewBox="62.668 257.113 200.874 194.062" width="200.874" height="194.062" xmlns="http://www.w3.org/2000/svg" xmlns:bx="https://boxy-svg.com">
  <defs>
    <filter id="inner-shadow-filter-0" color-interpolation-filters="sRGB" x="-50%" y="-50%" width="200%" height="200%" bx:preset="inner-shadow 1 0 0 19 0.62 #67d4d4b3">
      <feOffset dx="0" dy="0"/>
      <feGaussianBlur stdDeviation="19"/>
      <feComposite operator="out" in="SourceGraphic"/>
      <feComponentTransfer result="choke">
        <feFuncA type="linear" slope="1.24"/>
      </feComponentTransfer>
      <feFlood flood-color="#67d4d4b3" result="color"/>
      <feComposite operator="in" in="color" in2="choke" result="shadow"/>
      <feComposite operator="over" in="shadow" in2="SourceGraphic"/>
    </filter>
  </defs>
  <circle style="fill: rgb(216, 216, 216); stroke: rgb(0, 0, 0); filter: url('#inner-shadow-filter-0'); opacity: 0.72; stroke-width: 12.4658px; stroke-miterlimit: 1; paint-order: fill; stroke-opacity: 0.11;" transform="matrix(0.5624299645423889, 0, 0, 0.5606439709663391, -217.66029357910156, 20.74919319152832)" cx="677.5" cy="596" r="157.5"/>
  <rect x="62.668" y="257.113" width="200.874" height="194.062" style="fill: rgb(216, 216, 216); stroke: rgb(0, 0, 0); stroke-opacity: 0; opacity: 0;"/>
  <path fill="#CF0A2C" d="M 183.774 367.167 C 179.588 367.078 175.936 370.196 175.49 374.382 C 175.49 374.561 175.579 374.65 175.758 374.65 L 191.791 374.65 C 191.969 374.65 192.058 374.561 192.058 374.382 C 191.702 370.107 188.05 366.9 183.774 367.167 Z" style=""/>
  <path fill="#CF0A2C" d="M 218.157 313.188 L 183.952 351.49 C 183.596 351.936 182.884 351.936 182.438 351.579 L 182.349 351.49 L 165.069 333.586 C 164.712 333.23 164.712 332.696 164.98 332.25 L 170.769 324.857 C 171.126 324.412 171.749 324.234 172.195 324.59 C 172.284 324.679 172.373 324.679 172.373 324.768 L 182.171 335.546 C 182.527 335.991 183.24 335.991 183.685 335.635 L 183.774 335.546 L 211.12 298.402 C 211.387 298.046 211.298 297.6 210.942 297.333 C 210.853 297.244 210.675 297.244 210.497 297.155 L 114.831 297.155 C 114.385 297.244 114.029 297.6 114.029 298.046 L 114.029 406.895 C 114.029 407.34 114.385 407.696 114.831 407.696 L 218.691 407.696 C 219.137 407.696 219.493 407.34 219.493 406.895 L 219.493 313.723 C 219.493 313.277 219.137 313.01 218.781 313.01 C 218.513 312.921 218.335 313.01 218.157 313.188 Z M 143.513 395.582 C 136.654 395.849 129.973 393.533 124.896 388.991 C 124.54 388.634 124.451 388.1 124.807 387.655 L 128.815 381.954 C 129.172 381.508 129.795 381.419 130.241 381.687 L 130.33 381.776 C 134.071 385.25 138.881 387.12 143.958 387.12 C 149.302 387.12 151.886 384.626 151.886 382.043 C 151.886 373.937 125.609 379.549 125.609 362.357 C 125.609 354.786 132.2 348.462 142.889 348.462 C 149.035 348.284 155.092 350.332 159.902 354.252 C 160.259 354.608 160.348 355.231 159.991 355.588 L 155.805 361.11 C 155.449 361.556 154.825 361.645 154.38 361.289 C 150.817 358.438 146.452 356.924 141.909 357.013 C 137.723 357.013 135.407 358.884 135.407 361.556 C 135.407 368.771 161.595 363.961 161.595 380.974 C 161.684 389.258 155.716 395.582 143.513 395.582 Z M 200.787 379.727 C 200.787 380.261 200.342 380.618 199.897 380.618 L 175.936 380.618 C 175.758 380.618 175.668 380.707 175.668 380.885 C 176.47 385.517 180.657 388.723 185.378 388.456 C 188.406 388.367 191.257 387.476 193.662 385.695 C 194.018 385.428 194.641 385.428 194.909 385.873 L 194.998 385.962 L 197.937 390.238 C 198.204 390.594 198.115 391.128 197.759 391.485 C 193.929 394.335 189.208 395.76 184.487 395.582 C 174.154 395.582 166.405 388.634 166.405 377.767 C 166.138 368.236 173.62 360.309 183.151 360.042 L 183.952 360.042 C 194.018 360.042 200.966 367.613 200.966 378.658 L 200.787 379.727 Z" style=""/>
</svg>