<svg viewBox="62.668 257.113 200.874 194.062" width="200.874" height="194.062" xmlns="http://www.w3.org/2000/svg" xmlns:bx="https://boxy-svg.com">
  <defs>
    <filter id="inner-shadow-filter-0" color-interpolation-filters="sRGB" x="-50%" y="-50%" width="200%" height="200%" bx:preset="inner-shadow 1 0 0 19 0.62 #67d4d4b3">
      <feOffset dx="0" dy="0"/>
      <feGaussianBlur stdDeviation="19"/>
      <feComposite operator="out" in="SourceGraphic"/>
      <feComponentTransfer result="choke">
        <feFuncA type="linear" slope="1.24"/>
      </feComponentTransfer>
      <feFlood flood-color="#67d4d4b3" result="color"/>
      <feComposite operator="in" in="color" in2="choke" result="shadow"/>
      <feComposite operator="over" in="shadow" in2="SourceGraphic"/>
    </filter>
  </defs>
  <circle style="fill: rgb(216, 216, 216); stroke: rgb(0, 0, 0); filter: url('#inner-shadow-filter-0'); opacity: 0.72; stroke-width: 12.4658px; stroke-miterlimit: 1; paint-order: fill; stroke-opacity: 0.11;" transform="matrix(0.5624299645423889, 0, 0, 0.5606439709663391, -217.66029357910156, 20.74919319152832)" cx="677.5" cy="596" r="157.5"/>
  <rect x="62.668" y="257.113" width="200.874" height="194.062" style="fill: rgb(216, 216, 216); stroke: rgb(0, 0, 0); stroke-opacity: 0; opacity: 0;"/>
  <path d="M 88.136 357.458 C 88.967 357.978 90.694 358.583 92.036 358.583 C 93.411 358.583 93.972 358.097 93.972 357.348 C 93.972 356.6 93.528 356.233 91.825 355.654 C 88.815 354.625 87.659 352.965 87.692 351.213 C 87.692 348.463 90.015 346.379 93.612 346.379 C 95.305 346.379 96.823 346.769 97.72 347.221 L 96.916 350.396 C 96.262 350.029 95.011 349.553 93.762 349.553 C 92.664 349.553 92.036 350.004 92.036 350.761 C 92.036 351.459 92.605 351.817 94.391 352.455 C 97.158 353.425 98.324 354.837 98.348 357.016 C 98.348 359.765 96.211 361.79 92.036 361.79 C 90.131 361.79 88.439 361.365 87.332 360.761 L 88.136 357.458 Z" fill="#1B171B" style=""/>
  <path d="M 114.271 353.927 C 114.271 359.331 110.489 361.816 106.59 361.816 C 102.33 361.816 99.06 358.973 99.06 354.2 C 99.06 349.425 102.155 346.379 106.834 346.379 C 111.302 346.37 114.271 349.485 114.271 353.927 Z M 103.739 354.071 C 103.739 356.608 104.779 358.514 106.716 358.514 C 108.477 358.514 109.6 356.727 109.6 354.071 C 109.6 351.868 108.77 349.629 106.716 349.629 C 104.544 349.629 103.739 351.901 103.739 354.071 Z" fill="#1B171B" style=""/>
  <path d="M 115.891 351.416 C 115.891 349.577 115.832 348.004 115.773 346.701 L 119.705 346.701 L 119.915 348.727 L 120.008 348.727 C 120.603 347.791 122.087 346.37 124.502 346.37 C 127.479 346.37 129.717 348.361 129.717 352.709 L 129.717 361.475 L 125.189 361.475 L 125.189 353.28 C 125.189 351.373 124.535 350.08 122.9 350.08 C 121.651 350.08 120.905 350.956 120.611 351.798 C 120.493 352.071 120.426 352.522 120.426 352.948 L 120.426 361.467 L 115.907 361.467 L 115.907 351.416 L 115.891 351.416 Z" fill="#1B171B" style=""/>
  <path d="M 140.414 361.475 L 140.146 359.995 L 140.061 359.995 C 139.114 361.177 137.622 361.807 135.902 361.807 C 132.951 361.807 131.199 359.628 131.199 357.271 C 131.199 353.433 134.595 351.586 139.743 351.62 L 139.743 351.408 C 139.743 350.624 139.324 349.501 137.094 349.501 C 135.609 349.501 134.033 350.012 133.077 350.616 L 132.239 347.655 C 133.254 347.076 135.248 346.352 137.898 346.352 C 142.754 346.352 144.296 349.254 144.296 352.726 L 144.296 357.867 C 144.296 359.287 144.354 360.641 144.505 361.458 L 140.414 361.458 L 140.414 361.475 Z M 139.886 354.497 C 137.504 354.463 135.66 355.041 135.66 356.82 C 135.66 358.002 136.432 358.573 137.446 358.573 C 138.502 358.581 139.45 357.901 139.793 356.879 C 139.852 356.624 139.886 356.36 139.886 356.097 L 139.886 354.497 Z" fill="#1B171B" style=""/>
  <path d="M 146.679 351.57 C 146.679 349.399 146.621 347.978 146.562 346.711 L 150.461 346.711 L 150.611 349.425 L 150.729 349.425 C 151.476 347.28 153.261 346.378 154.661 346.378 C 154.98 346.37 155.299 346.387 155.617 346.438 L 155.617 350.761 C 155.215 350.684 154.804 350.642 154.401 350.642 C 152.733 350.642 151.602 351.552 151.299 352.974 C 151.241 353.314 151.216 353.654 151.216 354.003 L 151.216 361.492 L 146.688 361.492 L 146.679 351.57 Z" fill="#1B171B" style=""/>
  <path d="M 185.467 357.484 C 185.467 358.99 185.501 360.326 185.585 361.475 L 183.262 361.475 L 183.111 359.084 L 183.052 359.084 C 182.364 360.258 180.847 361.807 178.29 361.807 C 176.026 361.807 173.318 360.539 173.318 355.399 L 173.318 346.855 L 175.934 346.855 L 175.934 354.947 C 175.934 357.722 176.764 359.603 179.145 359.603 C 180.897 359.603 182.122 358.361 182.599 357.186 C 182.758 356.752 182.835 356.292 182.835 355.824 L 182.835 346.855 L 185.451 346.855 L 185.451 357.484 L 185.467 357.484 Z" fill="#1B171B" style=""/>
  <path d="M 188.51 361.475 C 188.567 360.479 188.626 358.999 188.626 357.696 L 188.626 340.021 L 191.217 340.021 L 191.217 349.211 L 191.276 349.211 C 192.198 347.577 193.867 346.522 196.189 346.522 C 199.761 346.522 202.293 349.544 202.259 353.986 C 202.259 359.211 199.015 361.816 195.803 361.816 C 193.716 361.816 192.056 360.999 190.982 359.067 L 190.89 359.067 L 190.773 361.483 L 188.51 361.475 Z M 191.217 355.612 C 191.225 355.935 191.268 356.259 191.335 356.581 C 191.838 358.42 193.356 359.688 195.259 359.688 C 198 359.688 199.635 357.424 199.635 354.071 C 199.635 351.143 198.151 348.633 195.35 348.633 C 193.565 348.633 191.896 349.867 191.36 351.892 C 191.301 352.199 191.209 352.556 191.209 352.982 L 191.209 355.612 L 191.217 355.612 Z" fill="#1B171B" style=""/>
  <path d="M 205.832 354.649 C 205.891 358.241 208.155 359.722 210.771 359.722 C 212.65 359.722 213.781 359.39 214.762 358.964 L 215.207 360.871 C 214.284 361.296 212.708 361.773 210.411 361.773 C 205.976 361.773 203.326 358.811 203.326 354.403 C 203.326 349.995 205.883 346.514 210.084 346.514 C 214.788 346.514 216.037 350.718 216.037 353.407 C 216.037 353.824 216.003 354.233 215.953 354.641 L 205.832 354.649 Z M 213.513 352.744 C 213.547 351.05 212.834 348.42 209.882 348.42 C 207.233 348.42 206.076 350.897 205.858 352.744 L 213.513 352.744 Z" fill="#1B171B" style=""/>
  <path d="M 170.214 349.484 C 167.8 345.875 162.962 344.939 159.407 347.39 C 155.852 349.841 154.93 354.752 157.345 358.36 C 159.449 361.5 163.448 362.674 166.878 361.159 L 169.888 366.121 L 172.277 364.47 L 169.268 359.509 C 171.916 356.837 172.319 352.623 170.214 349.484 Z M 166.844 358.496 C 164.354 360.215 160.966 359.56 159.272 357.032 C 157.579 354.505 158.224 351.067 160.714 349.347 C 163.204 347.628 166.592 348.283 168.286 350.812 C 169.971 353.339 169.325 356.776 166.844 358.496 Z" fill="#1B171B" style=""/>
  <path d="M 233.944 361.535 L 232.1 361.535 C 232.1 346.454 219.842 334.191 204.775 334.191 L 204.775 332.319 C 220.857 332.319 233.944 345.424 233.944 361.535 Z" fill="#4E9BCD" style=""/>
  <path d="M 235.219 351.484 C 233.006 342.02 225.451 334.123 215.985 331.366 L 216.404 329.867 C 226.399 332.778 234.372 341.119 236.712 351.127 L 235.219 351.484 Z" fill="#4E9BCD" style=""/>
  <path d="M 236.638 342.607 C 234.357 337.561 230.466 333.153 225.687 330.208 L 226.325 329.144 C 231.313 332.217 235.371 336.82 237.753 342.098 L 236.638 342.607 Z" fill="#4E9BCD" style=""/>
</svg>