<svg viewBox="279.765 3.176 200.874 194.062" width="200.874" height="194.062" xmlns="http://www.w3.org/2000/svg" xmlns:bx="https://boxy-svg.com">
  <defs>
    <filter id="filter-1" color-interpolation-filters="sRGB" x="-50%" y="-50%" width="200%" height="200%" bx:preset="inner-shadow 1 0 0 14 0.5 rgb(100%46.275%23.137%)">
      <feOffset dx="0" dy="0"/>
      <feGaussianBlur stdDeviation="14"/>
      <feComposite operator="out" in="SourceGraphic"/>
      <feComponentTransfer result="choke">
        <feFuncA type="linear" slope="1"/>
      </feComponentTransfer>
      <feFlood flood-color="rgb(100%46.275%23.137%)" result="color"/>
      <feComposite operator="in" in="color" in2="choke" result="shadow"/>
      <feComposite operator="over" in="shadow" in2="SourceGraphic"/>
    </filter>
  </defs>
  <circle style="fill: rgb(216, 216, 216); stroke: rgb(0, 0, 0); opacity: 0.72; stroke-miterlimit: 1; filter: url('#filter-1'); stroke-width: 12.4658px; stroke-opacity: 0.09;" transform="matrix(0.5624299645423889, 0, 0, 0.5606439709663391, -1.032052993774414, -232.07492065429688)" cx="677.5" cy="596" r="157.5"/>
  <rect x="279.765" y="3.176" width="200.874" height="194.062" style="fill: rgb(216, 216, 216); stroke: rgb(0, 0, 0); stroke-opacity: 0; opacity: 0;"/>
  <path fill="#659AD3" d="M 433.34 63.812 L 385.04 36.012 C 384.24 35.512 383.14 35.312 381.94 35.312 C 380.74 35.312 379.64 35.612 378.84 36.012 L 330.84 63.912 C 329.14 64.912 327.94 67.412 327.94 69.312 L 327.94 125.012 C 327.94 126.112 328.14 127.412 328.94 128.512 L 435.74 66.512 C 435.14 65.312 434.24 64.412 433.34 63.812 Z"/>
  <path fill="#03599C" d="M 328.64 128.412 C 329.14 129.212 329.84 129.912 330.54 130.312 L 378.74 158.212 C 379.54 158.712 380.64 158.912 381.84 158.912 C 383.04 158.912 384.14 158.612 384.94 158.212 L 432.94 130.312 C 434.64 129.312 435.84 126.812 435.84 124.912 L 435.84 69.212 C 435.84 68.312 435.74 67.312 435.24 66.412 L 328.64 128.412 Z"/>
  <path fill="#fff" d="M 403.24 109.212 C 399.04 116.612 391.04 121.612 381.94 121.612 C 368.44 121.612 357.44 110.612 357.44 97.112 C 357.44 83.612 368.44 72.612 381.94 72.612 C 391.04 72.612 399.04 77.612 403.24 85.112 L 416.24 77.612 C 409.44 65.712 396.64 57.612 381.94 57.612 C 360.14 57.612 342.44 75.312 342.44 97.112 C 342.44 118.912 360.14 136.612 381.94 136.612 C 396.54 136.612 409.34 128.612 416.14 116.812 L 403.24 109.212 Z"/>
</svg>