<svg viewBox="279.765 3.176 200.874 194.062" width="200.874" height="194.062" xmlns="http://www.w3.org/2000/svg" xmlns:bx="https://boxy-svg.com">
  <defs>
    <filter id="filter-1" color-interpolation-filters="sRGB" x="-50%" y="-50%" width="200%" height="200%" bx:preset="inner-shadow 1 0 0 14 0.5 rgb(100%46.275%23.137%)">
      <feOffset dx="0" dy="0"/>
      <feGaussianBlur stdDeviation="14"/>
      <feComposite operator="out" in="SourceGraphic"/>
      <feComponentTransfer result="choke">
        <feFuncA type="linear" slope="1"/>
      </feComponentTransfer>
      <feFlood flood-color="rgb(100%46.275%23.137%)" result="color"/>
      <feComposite operator="in" in="color" in2="choke" result="shadow"/>
      <feComposite operator="over" in="shadow" in2="SourceGraphic"/>
    </filter>
  </defs>
  <circle style="fill: rgb(216, 216, 216); stroke: rgb(0, 0, 0); opacity: 0.72; stroke-miterlimit: 1; filter: url('#filter-1'); stroke-width: 12.4658px; stroke-opacity: 0.09;" transform="matrix(0.5624299645423889, 0, 0, 0.5606439709663391, -1.032052993774414, -232.07492065429688)" cx="677.5" cy="596" r="157.5"/>
  <rect x="279.765" y="3.176" width="200.874" height="194.062" style="fill: rgb(216, 216, 216); stroke: rgb(0, 0, 0); stroke-opacity: 0; opacity: 0;"/>
  <path fill="#9B4F96" d="M 434.465 64.375 L 386.165 36.575 C 385.365 36.075 384.265 35.875 383.065 35.875 C 381.865 35.875 380.765 36.175 379.965 36.575 L 331.965 64.475 C 330.265 65.475 329.065 67.975 329.065 69.875 L 329.065 125.575 C 329.065 126.675 329.265 127.975 330.065 129.075 L 436.865 67.075 C 436.265 65.875 435.365 64.975 434.465 64.375 Z"/>
  <path fill="#68217A" d="M 329.765 128.975 C 330.265 129.775 330.965 130.475 331.665 130.875 L 379.865 158.775 C 380.665 159.275 381.765 159.475 382.965 159.475 C 384.165 159.475 385.265 159.175 386.065 158.775 L 434.065 130.875 C 435.765 129.875 436.965 127.375 436.965 125.475 L 436.965 69.775 C 436.965 68.875 436.865 67.875 436.365 66.975 L 329.765 128.975 Z"/>
  <path fill="#fff" d="M 404.365 109.775 C 400.165 117.175 392.165 122.175 383.065 122.175 C 369.565 122.175 358.565 111.175 358.565 97.675 C 358.565 84.175 369.565 73.175 383.065 73.175 C 392.165 73.175 400.165 78.175 404.365 85.675 L 417.365 78.175 C 410.565 66.275 397.765 58.175 383.065 58.175 C 361.265 58.175 343.565 75.875 343.565 97.675 C 343.565 119.475 361.265 137.175 383.065 137.175 C 397.665 137.175 410.465 129.175 417.265 117.375 L 404.365 109.775 Z M 416.065 99.875 L 416.965 95.575 L 412.765 95.575 L 412.765 90.875 L 417.865 90.875 L 419.065 84.675 L 423.965 84.675 L 422.765 90.775 L 426.565 90.775 L 427.765 84.675 L 432.565 84.675 L 431.365 90.775 L 433.765 90.775 L 433.765 95.475 L 430.465 95.475 L 429.565 99.775 L 433.765 99.775 L 433.765 104.475 L 428.665 104.475 L 427.465 110.475 L 422.565 110.475 L 423.765 104.475 L 419.965 104.475 L 418.765 110.475 L 413.965 110.475 L 415.165 104.475 L 412.765 104.475 L 412.765 99.775 L 416.065 99.775 L 416.065 99.875 Z M 420.865 99.875 L 424.665 99.875 L 425.565 95.575 L 421.765 95.575 L 420.865 99.875 Z"/>
</svg>