<svg viewBox="279.765 3.176 200.874 194.062" width="200.874" height="194.062" xmlns="http://www.w3.org/2000/svg" xmlns:bx="https://boxy-svg.com">
  <defs>
    <filter id="filter-1" color-interpolation-filters="sRGB" x="-50%" y="-50%" width="200%" height="200%" bx:preset="inner-shadow 1 0 0 14 0.5 rgb(100%46.275%23.137%)">
      <feOffset dx="0" dy="0"/>
      <feGaussianBlur stdDeviation="14"/>
      <feComposite operator="out" in="SourceGraphic"/>
      <feComponentTransfer result="choke">
        <feFuncA type="linear" slope="1"/>
      </feComponentTransfer>
      <feFlood flood-color="rgb(100%46.275%23.137%)" result="color"/>
      <feComposite operator="in" in="color" in2="choke" result="shadow"/>
      <feComposite operator="over" in="shadow" in2="SourceGraphic"/>
    </filter>
  </defs>
  <circle style="fill: rgb(216, 216, 216); stroke: rgb(0, 0, 0); opacity: 0.72; stroke-miterlimit: 1; filter: url('#filter-1'); stroke-width: 12.4658px; stroke-opacity: 0.09;" transform="matrix(0.5624299645423889, 0, 0, 0.5606439709663391, -1.032052993774414, -232.07492065429688)" cx="677.5" cy="596" r="157.5"/>
  <rect x="279.765" y="3.176" width="200.874" height="194.062" style="fill: rgb(216, 216, 216); stroke: rgb(0, 0, 0); stroke-opacity: 0; opacity: 0;"/>
  <path d="M 366.652 39.862 L 387.582 39.862 L 387.582 136.742 C 376.845 138.782 368.962 139.597 360.401 139.597 C 334.85 139.596 321.531 128.046 321.531 105.892 C 321.531 84.554 335.666 70.692 357.546 70.692 C 360.944 70.692 363.526 70.964 366.652 71.779 L 366.652 39.862 Z M 366.652 88.627 C 364.206 87.812 362.167 87.541 359.585 87.541 C 348.985 87.541 342.868 94.064 342.868 105.48 C 342.868 116.625 348.713 122.74 359.45 122.74 C 361.759 122.74 363.662 122.604 366.652 122.198 L 366.652 88.627 Z" style="fill: rgb(37, 90, 49);"/>
  <path d="M 420.876 72.183 L 420.876 120.702 C 420.876 137.419 419.652 145.437 415.983 152.368 C 412.585 159.029 408.1 163.241 398.859 167.862 L 379.424 158.621 C 388.666 154.271 393.15 150.468 396.004 144.621 C 398.994 138.642 399.947 131.711 399.947 113.499 L 399.947 72.183 L 420.876 72.183 Z M 399.946 39.973 L 420.876 39.973 L 420.876 61.447 L 399.946 61.447 L 399.946 39.973 Z" style="fill: rgb(37, 90, 49);"/>
</svg>