<svg viewBox="279.765 3.176 200.874 194.062" width="200.874" height="194.062" xmlns="http://www.w3.org/2000/svg" xmlns:bx="https://boxy-svg.com">
  <defs>
    <filter id="filter-1" color-interpolation-filters="sRGB" x="-50%" y="-50%" width="200%" height="200%" bx:preset="inner-shadow 1 0 0 14 0.5 rgb(100%46.275%23.137%)">
      <feOffset dx="0" dy="0"/>
      <feGaussianBlur stdDeviation="14"/>
      <feComposite operator="out" in="SourceGraphic"/>
      <feComponentTransfer result="choke">
        <feFuncA type="linear" slope="1"/>
      </feComponentTransfer>
      <feFlood flood-color="rgb(100%46.275%23.137%)" result="color"/>
      <feComposite operator="in" in="color" in2="choke" result="shadow"/>
      <feComposite operator="over" in="shadow" in2="SourceGraphic"/>
    </filter>
  </defs>
  <circle style="fill: rgb(216, 216, 216); stroke: rgb(0, 0, 0); opacity: 0.72; stroke-miterlimit: 1; filter: url('#filter-1'); stroke-width: 12.4658px; stroke-opacity: 0.09;" transform="matrix(0.5624299645423889, 0, 0, 0.5606439709663391, -1.032052993774414, -232.07492065429688)" cx="677.5" cy="596" r="157.5"/>
  <rect x="279.765" y="3.176" width="200.874" height="194.062" style="fill: rgb(216, 216, 216); stroke: rgb(0, 0, 0); stroke-opacity: 0; opacity: 0;"/>
  <path fill-rule="evenodd" clip-rule="evenodd" fill="#3A4D54" d="M 340.701 132.775 L 340.701 124.675 C 340.701 123.575 341.401 122.775 342.501 122.775 L 342.801 122.775 C 343.901 122.775 344.601 123.675 344.601 124.675 L 344.601 141.675 C 344.601 145.775 342.601 149.075 339.001 151.175 C 337.301 152.175 335.501 152.675 333.601 152.675 L 332.801 152.675 C 328.701 152.675 325.401 150.675 323.301 147.075 C 322.301 145.375 321.801 143.575 321.801 141.675 L 321.801 140.875 C 321.801 136.775 323.801 133.475 327.401 131.375 C 329.101 130.375 330.901 129.875 332.801 129.875 L 333.601 129.875 C 336.301 129.975 338.701 130.975 340.701 132.775 Z M 325.601 141.275 C 325.601 144.275 327.101 146.475 329.701 147.975 C 330.801 148.575 331.901 148.875 333.101 148.875 C 336.001 148.875 338.201 147.475 339.701 144.975 C 340.401 143.775 340.701 142.575 340.701 141.175 C 340.701 138.575 339.501 136.575 337.401 135.075 C 336.101 134.175 334.701 133.675 333.201 133.675 C 330.001 133.675 327.701 135.275 326.301 138.175 C 325.801 139.175 325.601 140.275 325.601 141.275 Z M 357.801 129.975 L 358.301 129.975 C 362.701 129.975 366.101 132.075 368.201 135.975 C 369.101 137.475 369.501 139.175 369.501 140.975 L 369.501 141.775 C 369.501 145.875 367.501 149.175 363.901 151.275 C 362.201 152.275 360.401 152.775 358.501 152.775 L 357.701 152.775 C 353.601 152.775 350.301 150.775 348.201 147.175 C 347.201 145.475 346.701 143.675 346.701 141.775 L 346.701 140.975 C 346.701 136.875 348.801 133.575 352.301 131.475 C 354.001 130.375 355.901 129.975 357.801 129.975 Z M 350.601 141.275 C 350.601 144.175 352.001 146.275 354.501 147.775 C 355.701 148.475 356.901 148.775 358.301 148.775 C 361.201 148.775 363.301 147.275 364.801 144.875 C 365.501 143.675 365.801 142.475 365.801 141.075 C 365.801 138.375 364.501 136.275 362.301 134.775 C 361.101 133.975 359.701 133.575 358.301 133.575 C 355.101 133.575 352.801 135.175 351.401 138.075 C 350.801 139.175 350.601 140.275 350.601 141.275 Z M 385.401 134.075 C 384.801 133.775 383.701 133.675 383.101 133.675 C 379.901 133.575 377.601 135.375 376.201 138.175 C 375.701 139.175 375.501 140.175 375.501 141.275 C 375.501 144.575 377.201 146.875 380.101 148.275 C 381.201 148.775 382.501 148.875 383.701 148.875 C 384.701 148.875 386.201 148.275 387.101 147.775 L 387.301 147.675 L 388.101 147.675 C 389.001 147.875 389.601 148.375 389.601 149.375 L 389.601 149.775 C 389.601 152.075 385.301 152.675 383.701 152.775 C 378.001 153.175 373.701 150.075 372.101 144.575 C 371.801 143.675 371.701 142.675 371.701 141.675 L 371.701 140.875 C 371.701 136.775 373.801 133.475 377.301 131.375 C 379.001 130.375 380.801 129.875 382.701 129.875 L 383.501 129.875 C 385.501 129.875 387.401 130.475 389.101 131.575 L 389.201 131.675 L 389.301 131.775 C 389.501 132.075 389.601 132.375 389.601 132.775 L 389.601 133.175 C 389.601 134.175 388.901 134.675 388.001 134.875 L 387.701 134.875 C 387.201 134.875 385.901 134.275 385.401 134.075 Z M 397.801 136.675 C 399.301 135.175 400.801 133.675 402.301 132.275 C 402.701 131.875 404.301 130.175 404.901 130.175 L 405.701 130.175 C 406.601 130.375 407.201 130.875 407.201 131.875 L 407.201 132.275 C 407.201 132.875 406.501 133.675 406.001 134.075 L 403.301 136.775 L 398.701 141.475 C 400.701 143.475 402.701 145.475 404.601 147.475 L 406.201 149.175 C 406.401 149.375 406.701 149.575 406.801 149.875 C 407.001 150.175 407.101 150.475 407.101 150.775 L 407.101 151.275 C 406.901 152.175 406.301 152.875 405.401 152.875 L 405.101 152.875 C 404.501 152.875 403.801 152.175 403.301 151.775 C 402.401 150.975 401.501 150.075 400.701 149.175 L 397.801 146.275 L 397.801 150.875 C 397.801 151.975 397.101 152.775 396.001 152.775 L 395.701 152.775 C 394.601 152.775 393.901 151.875 393.901 150.875 L 393.901 124.775 C 393.901 123.675 394.601 122.875 395.701 122.875 L 396.001 122.875 C 397.101 122.875 397.801 123.675 397.801 124.775 L 397.801 136.675 Z M 445.401 130.075 L 445.801 130.075 C 446.901 130.075 447.701 130.875 447.701 131.975 C 447.701 133.575 446.201 133.975 444.901 133.975 C 443.201 133.975 441.501 134.975 440.401 136.175 C 438.901 137.675 438.301 139.475 438.301 141.575 L 438.301 150.775 C 438.301 151.875 437.601 152.675 436.501 152.675 L 436.201 152.675 C 435.101 152.675 434.401 151.775 434.401 150.775 L 434.401 140.975 C 434.401 137.175 436.201 134.175 439.301 131.975 C 441.101 130.775 443.201 130.075 445.401 130.075 Z M 418.301 148.375 C 419.701 148.875 421.301 148.775 422.701 148.575 C 423.401 148.275 425.301 147.475 426.001 147.575 L 426.201 147.575 C 426.601 147.775 427.001 148.075 427.201 148.475 C 427.701 149.475 427.501 150.475 426.501 151.075 L 426.201 151.275 C 422.601 153.375 418.701 153.075 415.101 151.075 C 413.401 150.175 412.101 148.775 411.101 147.075 L 410.901 146.675 C 408.601 142.675 408.901 138.375 411.501 134.575 C 412.401 133.275 413.601 132.275 415.001 131.475 L 415.501 131.175 C 418.901 129.175 422.601 129.375 426.101 131.075 C 428.001 131.975 429.501 133.375 430.601 135.175 L 430.801 135.475 C 431.601 136.775 430.601 137.975 429.601 138.775 C 428.401 139.675 427.201 140.775 426.101 141.775 C 423.401 143.975 420.801 146.175 418.301 148.375 Z M 415.001 146.075 L 423.501 138.775 C 424.501 137.975 425.501 137.075 426.501 136.175 C 425.701 135.175 424.401 134.475 423.401 134.075 C 421.201 133.275 419.001 133.475 417.001 134.675 C 414.401 136.175 413.201 138.675 413.301 141.675 C 413.301 142.875 413.701 143.975 414.301 145.075 C 414.501 145.475 414.701 145.775 415.001 146.075 M 394.401 69.575 L 405.701 69.575 L 405.701 81.075 L 411.401 81.075 C 414.001 81.075 416.701 80.575 419.201 79.775 C 420.401 79.375 421.801 78.775 423.001 78.075 C 421.401 75.975 420.601 73.375 420.401 70.775 C 420.101 67.275 420.801 62.675 423.201 59.975 L 424.401 58.575 L 425.801 59.675 C 429.401 62.575 432.301 66.475 432.901 71.075 C 437.201 69.775 442.201 70.075 446.001 72.275 L 447.501 73.175 L 446.701 74.775 C 443.501 80.975 436.801 82.975 430.301 82.575 C 420.501 106.875 399.301 118.375 373.501 118.375 C 360.201 118.375 348.001 113.375 341.001 101.575 L 340.901 101.375 L 339.901 99.275 C 337.501 94.075 336.801 88.375 337.301 82.675 L 337.501 80.975 L 347.101 80.975 L 347.101 69.575 L 358.401 69.575 L 358.401 58.275 L 380.901 58.275 L 380.901 46.975 L 394.401 46.975 L 394.401 69.575 Z"/>
  <path fill="#00AADA" d="M 430.901 73.775 C 431.701 67.875 427.301 63.275 424.501 61.075 C 421.401 64.675 420.901 74.275 425.801 78.275 C 423.001 80.675 417.301 82.975 411.301 82.975 L 339.101 82.975 C 338.501 89.175 339.601 94.875 342.101 99.775 L 342.901 101.275 C 343.401 102.175 344.001 102.975 344.601 103.875 C 347.601 104.075 350.301 104.175 352.801 104.075 C 357.701 103.975 361.701 103.375 364.801 102.375 C 365.301 102.175 365.701 102.475 365.901 102.875 C 366.101 103.375 365.801 103.775 365.401 103.975 C 365.001 104.075 364.601 104.275 364.101 104.375 C 361.701 105.075 359.101 105.475 355.801 105.675 L 355.201 105.675 C 353.901 105.775 352.501 105.775 351.001 105.775 C 349.401 105.775 347.901 105.775 346.101 105.675 C 352.101 112.475 361.501 116.475 373.301 116.475 C 398.301 116.475 419.501 105.375 428.801 80.575 C 435.501 81.275 441.901 79.575 444.801 73.875 C 440.301 71.275 434.301 72.075 430.901 73.775 Z"/>
  <path fill="#28B8EB" d="M 430.901 73.775 C 431.701 67.875 427.301 63.275 424.501 61.075 C 421.401 64.675 420.901 74.275 425.801 78.275 C 423.001 80.675 417.301 82.975 411.301 82.975 L 343.301 82.975 C 343.001 92.475 346.501 99.675 352.801 103.975 C 357.701 103.875 361.701 103.275 364.801 102.275 C 365.301 102.075 365.701 102.375 365.901 102.775 C 366.101 103.275 365.801 103.675 365.401 103.875 C 365.001 103.975 364.601 104.175 364.101 104.275 C 361.701 104.975 358.901 105.475 355.601 105.675 L 355.501 105.575 C 364.001 109.975 376.301 109.875 390.501 104.475 C 406.301 98.375 421.101 86.775 431.401 73.575 C 431.201 73.675 431.101 73.775 430.901 73.775 Z"/>
  <path fill="#028BB8" d="M 339.201 90.475 C 339.601 93.775 340.601 96.875 342.101 99.775 L 342.901 101.275 C 343.401 102.175 344.001 102.975 344.601 103.875 C 347.601 104.075 350.301 104.175 352.801 104.075 C 357.701 103.975 361.701 103.375 364.801 102.375 C 365.301 102.175 365.701 102.475 365.901 102.875 C 366.101 103.375 365.801 103.775 365.401 103.975 C 365.001 104.075 364.601 104.275 364.101 104.375 C 361.701 105.075 358.901 105.575 355.601 105.775 L 355.201 105.775 C 353.901 105.875 352.501 105.875 351.101 105.875 C 349.501 105.875 347.901 105.875 346.201 105.775 C 352.201 112.575 361.701 116.575 373.501 116.575 C 394.901 116.575 413.501 108.475 424.301 90.575 L 339.201 90.575 L 339.201 90.475 Z"/>
  <path fill="#019BC6" d="M 344.001 90.475 C 345.301 96.275 348.301 100.875 352.801 103.975 C 357.701 103.875 361.701 103.275 364.801 102.275 C 365.301 102.075 365.701 102.375 365.901 102.775 C 366.101 103.275 365.801 103.675 365.401 103.875 C 365.001 103.975 364.601 104.175 364.101 104.275 C 361.701 104.975 358.901 105.475 355.501 105.675 C 364.001 110.075 376.301 109.975 390.401 104.575 C 398.901 101.275 407.201 96.375 414.601 90.475 L 344.001 90.475 Z"/>
  <path fill-rule="evenodd" clip-rule="evenodd" fill="#00ACD3" d="M 348.901 71.375 L 358.701 71.375 L 358.701 81.175 L 348.901 81.175 L 348.901 71.375 Z M 349.701 72.275 L 350.501 72.275 L 350.501 80.375 L 349.701 80.375 L 349.701 72.275 Z M 351.201 72.275 L 352.001 72.275 L 352.001 80.375 L 351.201 80.375 L 351.201 72.275 Z M 352.701 72.275 L 353.501 72.275 L 353.501 80.375 L 352.701 80.375 L 352.701 72.275 Z M 354.101 72.275 L 354.901 72.275 L 354.901 80.375 L 354.101 80.375 L 354.101 72.275 Z M 355.601 72.275 L 356.401 72.275 L 356.401 80.375 L 355.601 80.375 L 355.601 72.275 Z M 357.101 72.275 L 357.901 72.275 L 357.901 80.375 L 357.101 80.375 L 357.101 72.275 Z M 360.201 60.175 L 370.001 60.175 L 370.001 69.875 L 360.201 69.875 L 360.201 60.175 Z M 361.001 60.975 L 361.801 60.975 L 361.801 69.075 L 361.001 69.075 L 361.001 60.975 Z M 362.501 60.975 L 363.301 60.975 L 363.301 69.075 L 362.501 69.075 L 362.501 60.975 Z M 363.901 60.975 L 364.701 60.975 L 364.701 69.075 L 363.901 69.075 L 363.901 60.975 Z M 365.401 60.975 L 366.201 60.975 L 366.201 69.075 L 365.401 69.075 L 365.401 60.975 Z M 366.901 60.975 L 367.701 60.975 L 367.701 69.075 L 366.901 69.075 L 366.901 60.975 Z M 368.401 60.975 L 369.201 60.975 L 369.201 69.075 L 368.401 69.075 L 368.401 60.975 Z"/>
  <path fill-rule="evenodd" clip-rule="evenodd" fill="#23C2EE" d="M 360.201 71.375 L 370.001 71.375 L 370.001 81.175 L 360.201 81.175 L 360.201 71.375 Z M 361.001 72.275 L 361.801 72.275 L 361.801 80.375 L 361.001 80.375 L 361.001 72.275 Z M 362.501 72.275 L 363.301 72.275 L 363.301 80.375 L 362.501 80.375 L 362.501 72.275 Z M 363.901 72.275 L 364.701 72.275 L 364.701 80.375 L 363.901 80.375 L 363.901 72.275 Z M 365.401 72.275 L 366.201 72.275 L 366.201 80.375 L 365.401 80.375 L 365.401 72.275 Z M 366.901 72.275 L 367.701 72.275 L 367.701 80.375 L 366.901 80.375 L 366.901 72.275 Z M 368.401 72.275 L 369.201 72.275 L 369.201 80.375 L 368.401 80.375 L 368.401 72.275 Z"/>
  <path fill-rule="evenodd" clip-rule="evenodd" fill="#00ACD3" d="M 371.501 71.375 L 381.301 71.375 L 381.301 81.175 L 371.501 81.175 L 371.501 71.375 Z M 372.301 72.275 L 373.101 72.275 L 373.101 80.375 L 372.301 80.375 L 372.301 72.275 Z M 373.701 72.275 L 374.501 72.275 L 374.501 80.375 L 373.701 80.375 L 373.701 72.275 Z M 375.201 72.275 L 376.001 72.275 L 376.001 80.375 L 375.201 80.375 L 375.201 72.275 Z M 376.701 72.275 L 377.501 72.275 L 377.501 80.375 L 376.701 80.375 L 376.701 72.275 Z M 378.201 72.275 L 379.001 72.275 L 379.001 80.375 L 378.201 80.375 L 378.201 72.275 Z M 379.601 72.275 L 380.401 72.275 L 380.401 80.375 L 379.601 80.375 L 379.601 72.275 Z"/>
  <path fill-rule="evenodd" clip-rule="evenodd" fill="#23C2EE" d="M 371.501 60.175 L 381.301 60.175 L 381.301 69.875 L 371.501 69.875 L 371.501 60.175 Z M 372.301 60.975 L 373.101 60.975 L 373.101 69.075 L 372.301 69.075 L 372.301 60.975 Z M 373.701 60.975 L 374.501 60.975 L 374.501 69.075 L 373.701 69.075 L 373.701 60.975 Z M 375.201 60.975 L 376.001 60.975 L 376.001 69.075 L 375.201 69.075 L 375.201 60.975 Z M 376.701 60.975 L 377.501 60.975 L 377.501 69.075 L 376.701 69.075 L 376.701 60.975 Z M 378.201 60.975 L 379.001 60.975 L 379.001 69.075 L 378.201 69.075 L 378.201 60.975 Z M 379.601 60.975 L 380.401 60.975 L 380.401 69.075 L 379.601 69.075 L 379.601 60.975 Z M 382.701 71.375 L 392.501 71.375 L 392.501 81.175 L 382.701 81.175 L 382.701 71.375 Z M 383.601 72.275 L 384.401 72.275 L 384.401 80.375 L 383.601 80.375 L 383.601 72.275 Z M 385.001 72.275 L 385.801 72.275 L 385.801 80.375 L 385.001 80.375 L 385.001 72.275 Z M 386.501 72.275 L 387.301 72.275 L 387.301 80.375 L 386.501 80.375 L 386.501 72.275 Z M 388.001 72.275 L 388.801 72.275 L 388.801 80.375 L 388.001 80.375 L 388.001 72.275 Z M 389.401 72.275 L 390.201 72.275 L 390.201 80.375 L 389.401 80.375 L 389.401 72.275 Z M 390.901 72.275 L 391.701 72.275 L 391.701 80.375 L 390.901 80.375 L 390.901 72.275 Z"/>
  <path fill-rule="evenodd" clip-rule="evenodd" fill="#00ACD3" d="M 382.701 60.175 L 392.501 60.175 L 392.501 69.875 L 382.701 69.875 L 382.701 60.175 Z M 383.601 60.975 L 384.401 60.975 L 384.401 69.075 L 383.601 69.075 L 383.601 60.975 Z M 385.001 60.975 L 385.801 60.975 L 385.801 69.075 L 385.001 69.075 L 385.001 60.975 Z M 386.501 60.975 L 387.301 60.975 L 387.301 69.075 L 386.501 69.075 L 386.501 60.975 Z M 388.001 60.975 L 388.801 60.975 L 388.801 69.075 L 388.001 69.075 L 388.001 60.975 Z M 389.401 60.975 L 390.201 60.975 L 390.201 69.075 L 389.401 69.075 L 389.401 60.975 Z M 390.901 60.975 L 391.701 60.975 L 391.701 69.075 L 390.901 69.075 L 390.901 60.975 Z"/>
  <path fill-rule="evenodd" clip-rule="evenodd" fill="#23C2EE" d="M 382.701 48.875 L 392.501 48.875 L 392.501 58.675 L 382.701 58.675 L 382.701 48.875 Z M 383.601 49.675 L 384.401 49.675 L 384.401 57.875 L 383.601 57.875 L 383.601 49.675 Z M 385.001 49.675 L 385.801 49.675 L 385.801 57.875 L 385.001 57.875 L 385.001 49.675 Z M 386.501 49.675 L 387.301 49.675 L 387.301 57.875 L 386.501 57.875 L 386.501 49.675 Z M 388.001 49.675 L 388.801 49.675 L 388.801 57.875 L 388.001 57.875 L 388.001 49.675 Z M 389.401 49.675 L 390.201 49.675 L 390.201 57.875 L 389.401 57.875 L 389.401 49.675 Z M 390.901 49.675 L 391.701 49.675 L 391.701 57.875 L 390.901 57.875 L 390.901 49.675 Z"/>
  <path fill-rule="evenodd" clip-rule="evenodd" fill="#00ACD3" d="M 394.001 71.375 L 403.801 71.375 L 403.801 81.175 L 394.001 81.175 L 394.001 71.375 Z M 394.801 72.275 L 395.601 72.275 L 395.601 80.375 L 394.801 80.375 L 394.801 72.275 Z M 396.301 72.275 L 397.101 72.275 L 397.101 80.375 L 396.301 80.375 L 396.301 72.275 Z M 397.801 72.275 L 398.601 72.275 L 398.601 80.375 L 397.801 80.375 L 397.801 72.275 Z M 399.201 72.275 L 400.001 72.275 L 400.001 80.375 L 399.201 80.375 L 399.201 72.275 Z M 400.701 72.275 L 401.501 72.275 L 401.501 80.375 L 400.701 80.375 L 400.701 72.275 Z M 402.201 72.275 L 403.001 72.275 L 403.001 80.375 L 402.201 80.375 L 402.201 72.275 Z"/>
  <path fill-rule="evenodd" clip-rule="evenodd" fill="#D4EEF1" d="M 369.301 97.075 C 370.801 97.075 372.001 98.275 372.001 99.775 C 372.001 101.275 370.801 102.475 369.301 102.475 C 367.801 102.475 366.601 101.275 366.601 99.775 C 366.701 98.275 367.901 97.075 369.301 97.075"/>
  <path fill-rule="evenodd" clip-rule="evenodd" fill="#3A4D54" d="M 369.301 97.775 C 369.501 97.775 369.801 97.775 370.001 97.875 C 369.801 97.975 369.601 98.275 369.601 98.575 C 369.601 98.975 370.001 99.375 370.401 99.375 C 370.701 99.375 371.001 99.175 371.101 98.975 C 371.201 99.175 371.201 99.475 371.201 99.675 C 371.201 100.775 370.301 101.575 369.301 101.575 C 368.201 101.575 367.401 100.675 367.401 99.675 C 367.401 98.675 368.301 97.775 369.301 97.775 M 321.701 91.475 L 447.001 91.475 C 444.301 90.775 438.401 89.875 439.301 86.275 C 434.301 91.975 422.401 90.275 419.301 87.475 C 415.901 92.375 396.301 90.475 395.001 86.675 C 390.801 91.675 377.701 91.675 373.501 86.675 C 372.101 90.475 352.501 92.375 349.201 87.475 C 346.201 90.275 334.201 91.975 329.201 86.275 C 330.301 89.775 324.401 90.775 321.701 91.475"/>
  <path fill="#BFDBE0" d="M 376.501 116.475 C 369.801 113.275 366.201 108.975 364.101 104.275 C 361.601 104.975 358.601 105.475 355.201 105.675 C 353.901 105.775 352.501 105.775 351.101 105.775 C 349.401 105.775 347.701 105.775 345.901 105.675 C 352.001 111.775 359.601 116.475 373.501 116.575 C 374.501 116.475 375.501 116.475 376.501 116.475 Z"/>
  <path fill="#D4EEF1" d="M 366.601 108.575 C 365.701 107.275 364.801 105.775 364.101 104.275 C 361.601 104.975 358.601 105.475 355.201 105.675 C 357.601 106.975 361.001 108.175 366.601 108.575 Z"/>
</svg>