<svg viewBox="279.765 3.176 200.874 194.062" width="200.874" height="194.062" xmlns="http://www.w3.org/2000/svg" xmlns:bx="https://boxy-svg.com">
  <defs>
    <filter id="filter-1" color-interpolation-filters="sRGB" x="-50%" y="-50%" width="200%" height="200%" bx:preset="inner-shadow 1 0 0 14 0.5 rgb(100%46.275%23.137%)">
      <feOffset dx="0" dy="0"/>
      <feGaussianBlur stdDeviation="14"/>
      <feComposite operator="out" in="SourceGraphic"/>
      <feComponentTransfer result="choke">
        <feFuncA type="linear" slope="1"/>
      </feComponentTransfer>
      <feFlood flood-color="rgb(100%46.275%23.137%)" result="color"/>
      <feComposite operator="in" in="color" in2="choke" result="shadow"/>
      <feComposite operator="over" in="shadow" in2="SourceGraphic"/>
    </filter>
  </defs>
  <circle style="fill: rgb(216, 216, 216); stroke: rgb(0, 0, 0); opacity: 0.72; stroke-miterlimit: 1; filter: url('#filter-1'); stroke-width: 12.4658px; stroke-opacity: 0.09;" transform="matrix(0.5624299645423889, 0, 0, 0.5606439709663391, -1.032052993774414, -232.07492065429688)" cx="677.5" cy="596" r="157.5"/>
  <rect x="279.765" y="3.176" width="200.874" height="194.062" style="fill: rgb(216, 216, 216); stroke: rgb(0, 0, 0); stroke-opacity: 0; opacity: 0;"/>
  <path fill="#F0DB4F" d="M 330.828 41.832 L 438.576 41.832 L 438.576 156.893 L 330.828 156.893 L 330.828 41.832 Z" style=""/>
  <path fill="#323330" d="M 429.758 129.451 C 428.969 124.202 425.763 119.792 416.269 115.681 C 412.971 114.062 409.293 112.903 408.197 110.234 C 407.809 108.681 407.757 107.806 408.004 106.865 C 408.71 103.814 412.121 102.863 414.825 103.738 C 416.566 104.361 418.214 105.794 419.208 108.08 C 423.858 104.865 423.848 104.886 427.095 102.676 C 425.906 100.709 425.272 99.8 424.494 98.958 C 421.697 95.623 417.887 93.905 411.792 94.036 L 408.619 94.475 C 405.577 95.296 402.678 97.001 400.978 99.287 C 395.877 105.467 397.332 116.283 403.539 120.734 C 409.654 125.635 418.636 126.75 419.783 131.333 C 420.899 136.943 415.922 138.76 410.974 138.114 C 407.328 137.305 405.3 135.326 403.108 131.727 C 399.074 134.221 399.074 134.221 394.924 136.768 C 395.908 139.066 396.942 140.105 398.591 142.095 C 406.397 150.549 425.927 150.133 429.431 137.338 C 429.573 136.898 430.516 133.968 429.758 129.451 Z M 389.403 94.714 L 379.325 94.714 L 379.283 122.538 C 379.283 128.455 379.57 133.88 378.669 135.542 C 377.194 138.813 373.374 138.407 371.633 137.774 C 369.86 136.843 368.959 135.521 367.915 133.651 C 367.628 133.114 367.413 132.699 367.341 132.667 L 359.147 138.025 C 360.509 141.012 362.516 143.604 365.088 145.287 C 368.928 147.748 374.09 148.503 379.489 147.18 C 383.002 146.087 386.033 143.823 387.621 140.377 C 389.915 135.86 389.422 130.391 389.402 124.344 C 389.453 114.477 389.403 104.612 389.403 94.714 Z" style=""/>
</svg>