<svg viewBox="279.765 3.176 200.874 194.062" width="200.874" height="194.062" xmlns="http://www.w3.org/2000/svg" xmlns:bx="https://boxy-svg.com">
  <defs>
    <filter id="filter-1" color-interpolation-filters="sRGB" x="-50%" y="-50%" width="200%" height="200%" bx:preset="inner-shadow 1 0 0 14 0.5 rgb(100%46.275%23.137%)">
      <feOffset dx="0" dy="0"/>
      <feGaussianBlur stdDeviation="14"/>
      <feComposite operator="out" in="SourceGraphic"/>
      <feComponentTransfer result="choke">
        <feFuncA type="linear" slope="1"/>
      </feComponentTransfer>
      <feFlood flood-color="rgb(100%46.275%23.137%)" result="color"/>
      <feComposite operator="in" in="color" in2="choke" result="shadow"/>
      <feComposite operator="over" in="shadow" in2="SourceGraphic"/>
    </filter>
  </defs>
  <circle style="fill: rgb(216, 216, 216); stroke: rgb(0, 0, 0); opacity: 0.72; stroke-miterlimit: 1; filter: url('#filter-1'); stroke-width: 12.4658px; stroke-opacity: 0.09;" transform="matrix(0.5624299645423889, 0, 0, 0.5606439709663391, -1.032052993774414, -232.07492065429688)" cx="677.5" cy="596" r="157.5"/>
  <rect x="279.765" y="3.176" width="200.874" height="194.062" style="fill: rgb(216, 216, 216); stroke: rgb(0, 0, 0); stroke-opacity: 0; opacity: 0;"/>
  <path style="-inkscape-stroke:none" d="M 335.277 152.444 C 333.039 152.444 330.764 151.519 329.336 149.705 L 329.336 159.501 L 324.86 159.501 L 324.86 135.321 L 328.909 135.321 L 329.068 137.972 C 330.457 135.928 332.925 134.848 335.278 134.851 C 339.789 134.851 343.116 138.63 343.116 143.646 C 343.116 148.661 339.787 152.447 335.276 152.445 L 335.277 152.444 Z M 333.89 138.174 C 331.277 138.174 329.144 140.218 329.144 143.651 C 329.144 147.084 331.264 149.128 333.888 149.128 C 336.511 149.128 338.627 147.084 338.627 143.651 C 338.627 140.218 336.511 138.174 333.89 138.174 Z M 359.985 151.985 L 359.83 149.325 C 358.442 151.368 355.973 152.448 353.622 152.448 C 349.109 152.448 345.785 148.667 345.785 143.653 C 345.785 138.64 349.102 134.858 353.622 134.861 C 355.972 134.861 358.442 135.949 359.83 137.984 L 359.985 135.324 L 364.035 135.324 L 364.035 151.987 L 359.985 151.985 Z M 355.011 138.175 C 352.398 138.175 350.267 140.219 350.267 143.652 C 350.267 147.085 352.387 149.129 355.011 149.129 C 357.634 149.129 359.754 147.085 359.754 143.654 C 359.754 140.224 357.634 138.188 355.011 138.175 Z M 379.689 151.989 L 379.689 142.761 C 379.689 139.521 378.569 138.441 376.526 138.441 C 374.406 138.441 372.091 140.368 372.089 142.682 L 372.089 151.978 L 367.617 151.978 L 367.617 135.324 L 371.717 135.324 L 371.908 138.411 C 373.028 136.289 375.535 134.863 378.08 134.863 C 382.514 134.863 384.175 137.95 384.175 142.077 L 384.175 151.989 L 379.689 151.989 Z M 400.566 151.991 L 400.411 149.329 C 399.024 151.373 396.556 152.452 394.202 152.452 C 389.69 152.452 386.365 148.672 386.365 143.658 C 386.365 138.644 389.683 134.865 394.202 134.865 C 396.438 134.865 398.715 135.792 400.142 137.605 L 400.142 128.85 L 404.615 128.85 L 404.615 151.991 L 400.566 151.991 Z M 395.594 138.189 C 392.97 138.189 390.848 140.233 390.848 143.666 C 390.848 147.099 392.968 149.141 395.591 149.144 C 398.215 149.144 400.335 147.099 400.335 143.666 C 400.335 140.233 398.215 138.189 395.594 138.189 Z M 421.427 151.993 L 421.273 149.333 C 419.884 151.377 417.415 152.457 415.064 152.455 C 410.551 152.455 407.227 148.675 407.227 143.662 C 407.227 138.648 410.545 134.867 415.064 134.869 C 417.415 134.869 419.884 135.958 421.273 137.993 L 421.428 135.333 L 425.488 135.333 L 425.488 151.993 L 421.427 151.993 Z M 416.453 138.189 C 413.83 138.189 411.71 140.233 411.71 143.666 C 411.71 147.099 413.83 149.144 416.453 149.144 C 419.076 149.144 421.197 147.099 421.197 143.666 C 421.197 140.233 419.077 138.189 416.453 138.189 Z M 435.391 152.535 C 433.037 152.516 430.732 151.863 428.718 150.645 L 429.45 147.55 C 430.8 148.36 432.844 149.403 435.312 149.403 C 437.086 149.403 438.321 148.863 438.321 147.473 C 438.321 146.279 437.049 145.854 434.772 145.314 C 430.686 144.426 429.219 142.267 429.221 139.914 C 429.221 137.301 431.265 134.824 435.778 134.824 C 438.517 134.824 440.907 136.021 441.438 136.328 L 440.713 139.278 C 439.256 138.4 437.594 137.92 435.893 137.888 C 434.08 137.888 433.192 138.505 433.192 139.508 C 433.192 140.625 434.35 141.128 436.124 141.552 C 440.519 142.478 442.294 144.522 442.294 146.76 C 442.294 150.339 439.67 152.535 435.391 152.535 Z M 372.969 55.892 L 380.916 55.892 L 380.916 72.395 L 372.969 72.395 L 372.969 55.892 Z M 372.969 89.79 L 380.916 89.79 L 380.916 106.292 L 372.969 106.292 L 372.969 89.79 Z" color="#000" fill="#130754"/>
  <path style="-inkscape-stroke:none" d="M 372.969 77.214 L 380.916 77.214 L 380.916 85 L 372.969 85 L 372.969 77.214 Z" color="#000" fill="#ffca00"/>
  <path style="-inkscape-stroke:none" d="M 360.202 69.461 L 368.149 69.461 L 368.149 124.315 L 360.202 124.315 L 360.202 69.461 Z M 385.472 103.405 L 393.42 103.405 L 393.42 119.907 L 385.472 119.907 L 385.472 103.405 Z M 385.472 69.481 L 393.42 69.481 L 393.42 85.983 L 385.472 85.983 L 385.472 69.481 Z" color="#000" fill="#130754"/>
  <path style="-inkscape-stroke:none" d="M 385.472 90.8 L 393.42 90.8 L 393.42 98.585 L 385.472 98.585 L 385.472 90.8 Z" color="#000" fill="#e70488"/>
  <path style="-inkscape-stroke:none" d="M 397.972 51.597 L 405.92 51.597 L 405.92 106.45 L 397.972 106.45 L 397.972 51.597 Z" color="#000" fill="#130754"/>
</svg>