<svg viewBox="279.765 3.176 200.874 194.062" width="200.874" height="194.062" xmlns="http://www.w3.org/2000/svg" xmlns:bx="https://boxy-svg.com">
  <defs>
    <filter id="filter-1" color-interpolation-filters="sRGB" x="-50%" y="-50%" width="200%" height="200%" bx:preset="inner-shadow 1 0 0 14 0.5 rgb(100%46.275%23.137%)">
      <feOffset dx="0" dy="0"/>
      <feGaussianBlur stdDeviation="14"/>
      <feComposite operator="out" in="SourceGraphic"/>
      <feComponentTransfer result="choke">
        <feFuncA type="linear" slope="1"/>
      </feComponentTransfer>
      <feFlood flood-color="rgb(100%46.275%23.137%)" result="color"/>
      <feComposite operator="in" in="color" in2="choke" result="shadow"/>
      <feComposite operator="over" in="shadow" in2="SourceGraphic"/>
    </filter>
  </defs>
  <circle style="fill: rgb(216, 216, 216); stroke: rgb(0, 0, 0); opacity: 0.72; stroke-miterlimit: 1; filter: url('#filter-1'); stroke-width: 12.4658px; stroke-opacity: 0.09;" transform="matrix(0.5624299645423889, 0, 0, 0.5606439709663391, -1.032052993774414, -232.07492065429688)" cx="677.5" cy="596" r="157.5"/>
  <rect x="279.765" y="3.176" width="200.874" height="194.062" style="fill: rgb(216, 216, 216); stroke: rgb(0, 0, 0); stroke-opacity: 0; opacity: 0;"/>
  <path fill="#CF0A2C" d="M 400.59 112.98 C 396.404 112.891 392.752 116.009 392.306 120.195 C 392.306 120.374 392.395 120.463 392.574 120.463 L 408.607 120.463 C 408.785 120.463 408.874 120.374 408.874 120.195 C 408.518 115.92 404.866 112.713 400.59 112.98 Z" style=""/>
  <path fill="#CF0A2C" d="M 434.973 59.001 L 400.768 97.303 C 400.412 97.749 399.7 97.749 399.254 97.392 L 399.165 97.303 L 381.885 79.399 C 381.528 79.043 381.528 78.509 381.796 78.063 L 387.585 70.67 C 387.942 70.225 388.565 70.047 389.011 70.403 C 389.1 70.492 389.189 70.492 389.189 70.581 L 398.987 81.359 C 399.343 81.804 400.056 81.804 400.501 81.448 L 400.59 81.359 L 427.936 44.215 C 428.203 43.859 428.114 43.413 427.758 43.146 C 427.669 43.057 427.491 43.057 427.313 42.968 L 331.647 42.968 C 331.201 43.057 330.845 43.413 330.845 43.859 L 330.845 152.708 C 330.845 153.153 331.201 153.509 331.647 153.509 L 435.507 153.509 C 435.953 153.509 436.309 153.153 436.309 152.708 L 436.309 59.536 C 436.309 59.09 435.953 58.823 435.597 58.823 C 435.329 58.734 435.151 58.823 434.973 59.001 Z M 360.329 141.395 C 353.47 141.662 346.789 139.346 341.712 134.804 C 341.356 134.447 341.267 133.913 341.623 133.468 L 345.631 127.767 C 345.988 127.321 346.611 127.232 347.057 127.5 L 347.146 127.589 C 350.887 131.063 355.697 132.933 360.774 132.933 C 366.118 132.933 368.702 130.439 368.702 127.856 C 368.702 119.75 342.425 125.362 342.425 108.17 C 342.425 100.599 349.016 94.275 359.705 94.275 C 365.851 94.097 371.908 96.145 376.718 100.065 C 377.075 100.421 377.164 101.044 376.807 101.401 L 372.621 106.923 C 372.265 107.369 371.641 107.458 371.196 107.102 C 367.633 104.251 363.268 102.737 358.725 102.826 C 354.539 102.826 352.223 104.697 352.223 107.369 C 352.223 114.584 378.411 109.774 378.411 126.787 C 378.5 135.071 372.532 141.395 360.329 141.395 Z M 417.603 125.54 C 417.603 126.074 417.158 126.431 416.713 126.431 L 392.752 126.431 C 392.574 126.431 392.484 126.52 392.484 126.698 C 393.286 131.33 397.473 134.536 402.194 134.269 C 405.222 134.18 408.073 133.289 410.478 131.508 C 410.834 131.241 411.457 131.241 411.725 131.686 L 411.814 131.775 L 414.753 136.051 C 415.02 136.407 414.931 136.941 414.575 137.298 C 410.745 140.148 406.024 141.573 401.303 141.395 C 390.97 141.395 383.221 134.447 383.221 123.58 C 382.954 114.049 390.436 106.122 399.967 105.855 L 400.768 105.855 C 410.834 105.855 417.782 113.426 417.782 124.471 L 417.603 125.54 Z" style=""/>
</svg>