<svg viewBox="279.765 3.176 200.874 194.062" width="200.874" height="194.062" xmlns="http://www.w3.org/2000/svg" xmlns:bx="https://boxy-svg.com">
  <defs>
    <filter id="filter-1" color-interpolation-filters="sRGB" x="-50%" y="-50%" width="200%" height="200%" bx:preset="inner-shadow 1 0 0 14 0.5 rgb(100%46.275%23.137%)">
      <feOffset dx="0" dy="0"/>
      <feGaussianBlur stdDeviation="14"/>
      <feComposite operator="out" in="SourceGraphic"/>
      <feComponentTransfer result="choke">
        <feFuncA type="linear" slope="1"/>
      </feComponentTransfer>
      <feFlood flood-color="rgb(100%46.275%23.137%)" result="color"/>
      <feComposite operator="in" in="color" in2="choke" result="shadow"/>
      <feComposite operator="over" in="shadow" in2="SourceGraphic"/>
    </filter>
  </defs>
  <circle style="fill: rgb(216, 216, 216); stroke: rgb(0, 0, 0); opacity: 0.72; stroke-miterlimit: 1; filter: url('#filter-1'); stroke-width: 12.4658px; stroke-opacity: 0.09;" transform="matrix(0.5624299645423889, 0, 0, 0.5606439709663391, -1.032052993774414, -232.07492065429688)" cx="677.5" cy="596" r="157.5"/>
  <rect x="279.765" y="3.176" width="200.874" height="194.062" style="fill: rgb(216, 216, 216); stroke: rgb(0, 0, 0); stroke-opacity: 0; opacity: 0;"/>
  <path d="M 306.92 102.439 C 307.751 102.959 309.478 103.564 310.82 103.564 C 312.195 103.564 312.756 103.078 312.756 102.329 C 312.756 101.581 312.312 101.214 310.609 100.635 C 307.599 99.606 306.443 97.946 306.476 96.194 C 306.476 93.444 308.799 91.36 312.396 91.36 C 314.089 91.36 315.607 91.75 316.504 92.202 L 315.7 95.377 C 315.046 95.01 313.795 94.534 312.546 94.534 C 311.448 94.534 310.82 94.985 310.82 95.742 C 310.82 96.44 311.389 96.798 313.175 97.436 C 315.942 98.406 317.108 99.818 317.132 101.997 C 317.132 104.746 314.995 106.771 310.82 106.771 C 308.915 106.771 307.223 106.346 306.116 105.742 L 306.92 102.439 Z" fill="#1B171B" style=""/>
  <path d="M 333.055 98.908 C 333.055 104.312 329.273 106.797 325.374 106.797 C 321.114 106.797 317.844 103.954 317.844 99.181 C 317.844 94.406 320.939 91.36 325.618 91.36 C 330.086 91.351 333.055 94.466 333.055 98.908 Z M 322.523 99.052 C 322.523 101.589 323.563 103.495 325.5 103.495 C 327.261 103.495 328.384 101.708 328.384 99.052 C 328.384 96.849 327.554 94.61 325.5 94.61 C 323.328 94.61 322.523 96.882 322.523 99.052 Z" fill="#1B171B" style=""/>
  <path d="M 334.675 96.397 C 334.675 94.558 334.616 92.985 334.557 91.682 L 338.489 91.682 L 338.699 93.708 L 338.792 93.708 C 339.387 92.772 340.871 91.351 343.286 91.351 C 346.263 91.351 348.501 93.342 348.501 97.69 L 348.501 106.456 L 343.973 106.456 L 343.973 98.261 C 343.973 96.354 343.319 95.061 341.684 95.061 C 340.435 95.061 339.689 95.937 339.395 96.779 C 339.277 97.052 339.21 97.503 339.21 97.929 L 339.21 106.448 L 334.691 106.448 L 334.691 96.397 L 334.675 96.397 Z" fill="#1B171B" style=""/>
  <path d="M 359.198 106.456 L 358.93 104.976 L 358.845 104.976 C 357.898 106.158 356.406 106.788 354.686 106.788 C 351.735 106.788 349.983 104.609 349.983 102.252 C 349.983 98.414 353.379 96.567 358.527 96.601 L 358.527 96.389 C 358.527 95.605 358.108 94.482 355.878 94.482 C 354.393 94.482 352.817 94.993 351.861 95.597 L 351.023 92.636 C 352.038 92.057 354.032 91.333 356.682 91.333 C 361.538 91.333 363.08 94.235 363.08 97.707 L 363.08 102.848 C 363.08 104.268 363.138 105.622 363.289 106.439 L 359.198 106.439 L 359.198 106.456 Z M 358.67 99.478 C 356.288 99.444 354.444 100.022 354.444 101.801 C 354.444 102.983 355.216 103.554 356.23 103.554 C 357.286 103.562 358.234 102.882 358.577 101.86 C 358.636 101.605 358.67 101.341 358.67 101.078 L 358.67 99.478 Z" fill="#1B171B" style=""/>
  <path d="M 365.463 96.551 C 365.463 94.38 365.405 92.959 365.346 91.692 L 369.245 91.692 L 369.395 94.406 L 369.513 94.406 C 370.26 92.261 372.045 91.359 373.445 91.359 C 373.764 91.351 374.083 91.368 374.401 91.419 L 374.401 95.742 C 373.999 95.665 373.588 95.623 373.185 95.623 C 371.517 95.623 370.386 96.533 370.083 97.955 C 370.025 98.295 370 98.635 370 98.984 L 370 106.473 L 365.472 106.473 L 365.463 96.551 Z" fill="#1B171B" style=""/>
  <path d="M 404.251 102.465 C 404.251 103.971 404.285 105.307 404.369 106.456 L 402.046 106.456 L 401.895 104.065 L 401.836 104.065 C 401.148 105.239 399.631 106.788 397.074 106.788 C 394.81 106.788 392.102 105.52 392.102 100.38 L 392.102 91.836 L 394.718 91.836 L 394.718 99.928 C 394.718 102.703 395.548 104.584 397.929 104.584 C 399.681 104.584 400.906 103.342 401.383 102.167 C 401.542 101.733 401.619 101.273 401.619 100.805 L 401.619 91.836 L 404.235 91.836 L 404.235 102.465 L 404.251 102.465 Z" fill="#1B171B" style=""/>
  <path d="M 407.294 106.456 C 407.351 105.46 407.41 103.98 407.41 102.677 L 407.41 85.002 L 410.001 85.002 L 410.001 94.192 L 410.06 94.192 C 410.982 92.558 412.651 91.503 414.973 91.503 C 418.545 91.503 421.077 94.525 421.043 98.967 C 421.043 104.192 417.799 106.797 414.587 106.797 C 412.5 106.797 410.84 105.98 409.766 104.048 L 409.674 104.048 L 409.557 106.464 L 407.294 106.456 Z M 410.001 100.593 C 410.009 100.916 410.052 101.24 410.119 101.562 C 410.622 103.401 412.14 104.669 414.043 104.669 C 416.784 104.669 418.419 102.405 418.419 99.052 C 418.419 96.124 416.935 93.614 414.134 93.614 C 412.349 93.614 410.68 94.848 410.144 96.873 C 410.085 97.18 409.993 97.537 409.993 97.963 L 409.993 100.593 L 410.001 100.593 Z" fill="#1B171B" style=""/>
  <path d="M 424.616 99.63 C 424.675 103.222 426.939 104.703 429.555 104.703 C 431.434 104.703 432.565 104.371 433.546 103.945 L 433.991 105.852 C 433.068 106.277 431.492 106.754 429.195 106.754 C 424.76 106.754 422.11 103.792 422.11 99.384 C 422.11 94.976 424.667 91.495 428.868 91.495 C 433.572 91.495 434.821 95.699 434.821 98.388 C 434.821 98.805 434.787 99.214 434.737 99.622 L 424.616 99.63 Z M 432.297 97.725 C 432.331 96.031 431.618 93.401 428.666 93.401 C 426.017 93.401 424.86 95.878 424.642 97.725 L 432.297 97.725 Z" fill="#1B171B" style=""/>
  <path d="M 388.998 94.465 C 386.584 90.856 381.746 89.92 378.191 92.371 C 374.636 94.822 373.714 99.733 376.129 103.341 C 378.233 106.481 382.232 107.655 385.662 106.14 L 388.672 111.102 L 391.061 109.451 L 388.052 104.49 C 390.7 101.818 391.103 97.604 388.998 94.465 Z M 385.628 103.477 C 383.138 105.196 379.75 104.541 378.056 102.013 C 376.363 99.486 377.008 96.048 379.498 94.328 C 381.988 92.609 385.376 93.264 387.07 95.793 C 388.755 98.32 388.109 101.757 385.628 103.477 Z" fill="#1B171B" style=""/>
  <path d="M 452.728 106.516 L 450.884 106.516 C 450.884 91.435 438.626 79.172 423.559 79.172 L 423.559 77.3 C 439.641 77.3 452.728 90.405 452.728 106.516 Z" fill="#4E9BCD" style=""/>
  <path d="M 454.003 96.465 C 451.79 87.001 444.235 79.104 434.769 76.347 L 435.188 74.848 C 445.183 77.759 453.156 86.1 455.496 96.108 L 454.003 96.465 Z" fill="#4E9BCD" style=""/>
  <path d="M 455.422 87.588 C 453.141 82.542 449.25 78.134 444.471 75.189 L 445.109 74.125 C 450.097 77.198 454.155 81.801 456.537 87.079 L 455.422 87.588 Z" fill="#4E9BCD" style=""/>
</svg>